<svg width="22" height="22" viewBox="0 0 22 22" fill="none" xmlns="http://www.w3.org/2000/svg">
    <path d="M10.9997 9.10137C10.8099 9.10137 10.6513 9.16503 10.524 9.29237C10.3967 9.4197 10.333 9.57825 10.333 9.76803V15.368L8.00467 13.0397C7.88001 12.915 7.72701 12.8484 7.54567 12.8397C7.36456 12.8313 7.20312 12.8979 7.06134 13.0397C6.91934 13.1817 6.84834 13.3389 6.84834 13.5114C6.84834 13.684 6.91934 13.8414 7.06134 13.9834L10.2457 17.168C10.4612 17.3834 10.7126 17.491 10.9997 17.491C11.2868 17.491 11.5381 17.3834 11.7537 17.168L14.938 13.9834C15.0629 13.8585 15.1296 13.7055 15.138 13.5244C15.1467 13.3433 15.08 13.1817 14.938 13.0397C14.7962 12.8979 14.639 12.827 14.4663 12.827C14.2937 12.827 14.1365 12.8979 13.9947 13.0397L11.6663 15.368V9.76803C11.6663 9.57825 11.6027 9.4197 11.4753 9.29237C11.348 9.16503 11.1895 9.10137 10.9997 9.10137ZM1.66634 5.40903V19.5114C1.66634 19.7507 1.74323 19.9474 1.89701 20.1014C2.05101 20.2551 2.24767 20.332 2.48701 20.332H19.5123C19.7517 20.332 19.9483 20.2551 20.1023 20.1014C20.2561 19.9474 20.333 19.7507 20.333 19.5114V5.40903H1.66634ZM2.69201 21.6654C2.09534 21.6654 1.55301 21.4214 1.06501 20.9334C0.577008 20.4454 0.333008 19.903 0.333008 19.3064V4.9807C0.333008 4.72092 0.374452 4.47648 0.457341 4.24737C0.54023 4.01825 0.664563 3.80714 0.830341 3.61403L2.90734 1.11936C3.10045 0.859364 3.3419 0.663143 3.63167 0.530699C3.92145 0.398254 4.23212 0.332031 4.56367 0.332031H17.3843C17.7159 0.332031 18.0308 0.398254 18.329 0.530699C18.6275 0.663143 18.8732 0.859364 19.0663 1.11936L21.169 3.66536C21.3348 3.85848 21.4591 4.07381 21.542 4.31136C21.6249 4.54914 21.6663 4.79792 21.6663 5.0577V19.3064C21.6663 19.903 21.4223 20.4454 20.9343 20.9334C20.4463 21.4214 19.904 21.6654 19.3073 21.6654H2.69201ZM2.17401 4.0757H19.7997L18.0253 1.94737C17.9398 1.86203 17.8415 1.7937 17.7303 1.74236C17.6192 1.69103 17.5039 1.66536 17.3843 1.66536H4.58934C4.46979 1.66536 4.35445 1.69103 4.24334 1.74236C4.13223 1.7937 4.0339 1.86203 3.94834 1.94737L2.17401 4.0757Z" fill="#6A7E9E"/>
</svg>
