<svg width="20" height="19" viewBox="0 0 20 19" fill="none" xmlns="http://www.w3.org/2000/svg">
    <path d="M6.05775 15.5C5.55258 15.5 5.125 15.325 4.775 14.975C4.425 14.625 4.25 14.1974 4.25 13.6923V2.30775C4.25 1.80258 4.425 1.375 4.775 1.025C5.125 0.675 5.55258 0.5 6.05775 0.5H17.4423C17.9474 0.5 18.375 0.675 18.725 1.025C19.075 1.375 19.25 1.80258 19.25 2.30775V13.6923C19.25 14.1974 19.075 14.625 18.725 14.975C18.375 15.325 17.9474 15.5 17.4423 15.5H6.05775ZM2.55775 19C2.05258 19 1.625 18.825 1.275 18.475C0.925 18.125 0.75 17.6974 0.75 17.1923V5.05775C0.75 4.84492 0.821833 4.66667 0.9655 4.523C1.109 4.3795 1.28717 4.30775 1.5 4.30775C1.71283 4.30775 1.89108 4.3795 2.03475 4.523C2.17825 4.66667 2.25 4.84492 2.25 5.05775V17.1923C2.25 17.2693 2.28208 17.3398 2.34625 17.4038C2.41025 17.4679 2.48075 17.5 2.55775 17.5H14.6923C14.9051 17.5 15.0833 17.5718 15.227 17.7153C15.3705 17.8589 15.4423 18.0372 15.4423 18.25C15.4423 18.4628 15.3705 18.641 15.227 18.7845C15.0833 18.9282 14.9051 19 14.6923 19H2.55775Z" fill="#1D3252"/>
</svg>
