<svg width="18" height="18" viewBox="0 0 18 18" fill="none" xmlns="http://www.w3.org/2000/svg">
    <path d="M1.76925 17.5781C1.34742 17.5781 0.98875 17.4304 0.69325 17.1349C0.39775 16.8392 0.25 16.4805 0.25 16.0589V5.59713C0.25 5.17546 0.39775 4.81687 0.69325 4.52137C0.98875 4.22587 1.34742 4.07812 1.76925 4.07812H4.25V1.59713C4.25 1.17546 4.39775 0.816875 4.69325 0.521375C4.98875 0.225875 5.34742 0.078125 5.76925 0.078125H12.2308C12.6526 0.078125 13.0113 0.225875 13.3068 0.521375C13.6023 0.816875 13.75 1.17546 13.75 1.59713V8.07812H16.2308C16.6526 8.07812 17.0113 8.22587 17.3068 8.52137C17.6023 8.81687 17.75 9.17546 17.75 9.59713V16.0589C17.75 16.4805 17.6023 16.8392 17.3068 17.1349C17.0113 17.4304 16.6526 17.5781 16.2308 17.5781H10.25V13.5781H7.75V17.5781H1.76925ZM1.75 16.0781H4.25V13.5781H1.75V16.0781ZM1.75 12.0781H4.25V9.57812H1.75V12.0781ZM1.75 8.07812H4.25V5.57812H1.75V8.07812ZM5.75 12.0781H8.25V9.57812H5.75V12.0781ZM5.75 8.07812H8.25V5.57812H5.75V8.07812ZM5.75 4.07812H8.25V1.57812H5.75V4.07812ZM9.75 12.0781H12.25V9.57812H9.75V12.0781ZM9.75 8.07812H12.25V5.57812H9.75V8.07812ZM9.75 4.07812H12.25V1.57812H9.75V4.07812ZM13.75 16.0781H16.25V13.5781H13.75V16.0781ZM13.75 12.0781H16.25V9.57812H13.75V12.0781Z" fill="#1D3252"/>
</svg>
