<svg width="32" height="32" viewBox="0 0 32 32" fill="none" xmlns="http://www.w3.org/2000/svg">
    <mask id="mask0_2425_8664" style="mask-type:alpha" maskUnits="userSpaceOnUse" x="0" y="0" width="32" height="32">
        <rect width="32" height="32" fill="#D9D9D9"/>
    </mask>
    <g mask="url(#mask0_2425_8664)">
        <path d="M7.48701 27.9991C6.87323 27.9991 6.36079 27.7935 5.94967 27.3824C5.53856 26.9713 5.33301 26.4588 5.33301 25.8451V8.81974C5.33301 8.20596 5.53856 7.69352 5.94967 7.28241C6.36079 6.87129 6.87323 6.66574 7.48701 6.66574H9.84567V4.40941C9.84567 4.20252 9.91367 4.03107 10.0497 3.89507C10.1857 3.75929 10.357 3.69141 10.5637 3.69141C10.7706 3.69141 10.942 3.75929 11.078 3.89507C11.2138 4.03107 11.2817 4.20252 11.2817 4.40941V6.66574H20.8203V4.35807C20.8203 4.1683 20.884 4.00974 21.0113 3.88241C21.1387 3.75507 21.2972 3.69141 21.487 3.69141C21.6766 3.69141 21.835 3.75507 21.9623 3.88241C22.0899 4.00974 22.1537 4.1683 22.1537 4.35807V6.66574H24.5123C25.1261 6.66574 25.6386 6.87129 26.0497 7.28241C26.4608 7.69352 26.6663 8.20596 26.6663 8.81974V25.8451C26.6663 26.4588 26.4608 26.9713 26.0497 27.3824C25.6386 27.7935 25.1261 27.9991 24.5123 27.9991H7.48701ZM7.48701 26.6657H24.5123C24.7177 26.6657 24.9058 26.5803 25.0767 26.4094C25.2476 26.2385 25.333 26.0504 25.333 25.8451V14.1531H6.66634V25.8451C6.66634 26.0504 6.75179 26.2385 6.92267 26.4094C7.09356 26.5803 7.28167 26.6657 7.48701 26.6657ZM6.66634 12.8194H25.333V8.81974C25.333 8.61441 25.2476 8.42629 25.0767 8.25541C24.9058 8.08452 24.7177 7.99907 24.5123 7.99907H7.48701C7.28167 7.99907 7.09356 8.08452 6.92267 8.25541C6.75179 8.42629 6.66634 8.61441 6.66634 8.81974V12.8194ZM15.9997 18.8707C15.7246 18.8707 15.4848 18.7686 15.2803 18.5644C15.0761 18.3602 14.974 18.1204 14.974 17.8451C14.974 17.57 15.0761 17.3303 15.2803 17.1261C15.4848 16.9218 15.7246 16.8197 15.9997 16.8197C16.2748 16.8197 16.5146 16.9218 16.719 17.1261C16.9232 17.3303 17.0253 17.57 17.0253 17.8451C17.0253 18.1204 16.9232 18.3602 16.719 18.5644C16.5146 18.7686 16.2748 18.8707 15.9997 18.8707ZM10.6663 18.8707C10.3912 18.8707 10.1515 18.7686 9.94701 18.5644C9.74279 18.3602 9.64068 18.1204 9.64068 17.8451C9.64068 17.57 9.74279 17.3303 9.94701 17.1261C10.1515 16.9218 10.3912 16.8197 10.6663 16.8197C10.9415 16.8197 11.1812 16.9218 11.3857 17.1261C11.5899 17.3303 11.692 17.57 11.692 17.8451C11.692 18.1204 11.5899 18.3602 11.3857 18.5644C11.1812 18.7686 10.9415 18.8707 10.6663 18.8707ZM21.333 18.8707C21.0579 18.8707 20.8181 18.7686 20.6137 18.5644C20.4095 18.3602 20.3073 18.1204 20.3073 17.8451C20.3073 17.57 20.4095 17.3303 20.6137 17.1261C20.8181 16.9218 21.0579 16.8197 21.333 16.8197C21.6081 16.8197 21.8479 16.9218 22.0523 17.1261C22.2566 17.3303 22.3587 17.57 22.3587 17.8451C22.3587 18.1204 22.2566 18.3602 22.0523 18.5644C21.8479 18.7686 21.6081 18.8707 21.333 18.8707ZM15.9997 23.9991C15.7246 23.9991 15.4848 23.897 15.2803 23.6927C15.0761 23.4885 14.974 23.2487 14.974 22.9734C14.974 22.6983 15.0761 22.4585 15.2803 22.2541C15.4848 22.0498 15.7246 21.9477 15.9997 21.9477C16.2748 21.9477 16.5146 22.0498 16.719 22.2541C16.9232 22.4585 17.0253 22.6983 17.0253 22.9734C17.0253 23.2487 16.9232 23.4885 16.719 23.6927C16.5146 23.897 16.2748 23.9991 15.9997 23.9991ZM10.6663 23.9991C10.3912 23.9991 10.1515 23.897 9.94701 23.6927C9.74279 23.4885 9.64068 23.2487 9.64068 22.9734C9.64068 22.6983 9.74279 22.4585 9.94701 22.2541C10.1515 22.0498 10.3912 21.9477 10.6663 21.9477C10.9415 21.9477 11.1812 22.0498 11.3857 22.2541C11.5899 22.4585 11.692 22.6983 11.692 22.9734C11.692 23.2487 11.5899 23.4885 11.3857 23.6927C11.1812 23.897 10.9415 23.9991 10.6663 23.9991ZM21.333 23.9991C21.0579 23.9991 20.8181 23.897 20.6137 23.6927C20.4095 23.4885 20.3073 23.2487 20.3073 22.9734C20.3073 22.6983 20.4095 22.4585 20.6137 22.2541C20.8181 22.0498 21.0579 21.9477 21.333 21.9477C21.6081 21.9477 21.8479 22.0498 22.0523 22.2541C22.2566 22.4585 22.3587 22.6983 22.3587 22.9734C22.3587 23.2487 22.2566 23.4885 22.0523 23.6927C21.8479 23.897 21.6081 23.9991 21.333 23.9991Z" fill="#6A7E9E"/>
    </g>
</svg>
