<svg width="20" height="21" viewBox="0 0 20 21" fill="none" xmlns="http://www.w3.org/2000/svg">
    <path d="M2.30775 19.4981C1.80258 19.4981 1.375 19.3231 1.025 18.9731C0.675 18.6231 0.5 18.1955 0.5 17.6903V4.30581C0.5 3.80065 0.675 3.37306 1.025 3.02306C1.375 2.67306 1.80258 2.49806 2.30775 2.49806H3.69225V1.15181C3.69225 0.933979 3.76617 0.751312 3.914 0.603812C4.06167 0.456478 4.24467 0.382812 4.463 0.382812C4.68133 0.382812 4.86383 0.456478 5.0105 0.603812C5.15733 0.751312 5.23075 0.933979 5.23075 1.15181V2.49806H12.8078V1.13281C12.8078 0.920313 12.8797 0.742146 13.0235 0.598312C13.1672 0.454646 13.3453 0.382812 13.558 0.382812C13.7707 0.382812 13.9488 0.454646 14.0923 0.598312C14.2359 0.742146 14.3078 0.920313 14.3078 1.13281V2.49806H15.6923C16.1974 2.49806 16.625 2.67306 16.975 3.02306C17.325 3.37306 17.5 3.80065 17.5 4.30581V9.01931C17.5 9.23181 17.4281 9.4099 17.2843 9.55356C17.1404 9.6974 16.9623 9.76931 16.7498 9.76931C16.5371 9.76931 16.359 9.6974 16.2155 9.55356C16.0718 9.4099 16 9.23181 16 9.01931V8.30581H2V17.6903C2 17.7673 2.03208 17.8378 2.09625 17.9018C2.16025 17.966 2.23075 17.9981 2.30775 17.9981H8.425C8.6375 17.9981 8.81567 18.07 8.9595 18.2138C9.10317 18.3576 9.175 18.5358 9.175 18.7483C9.175 18.961 9.10317 19.1391 8.9595 19.2826C8.81567 19.4262 8.6375 19.4981 8.425 19.4981H2.30775ZM15.1923 20.4981C13.9436 20.4981 12.8814 20.0602 12.0058 19.1846C11.1301 18.3089 10.6923 17.2467 10.6923 15.9981C10.6923 14.7494 11.1301 13.6872 12.0058 12.8116C12.8814 11.9359 13.9436 11.4981 15.1923 11.4981C16.4411 11.4981 17.5033 11.9359 18.3788 12.8116C19.2544 13.6872 19.6923 14.7494 19.6923 15.9981C19.6923 17.2467 19.2544 18.3089 18.3788 19.1846C17.5033 20.0602 16.4411 20.4981 15.1923 20.4981ZM15.6348 15.8153V13.4981C15.6348 13.3801 15.5905 13.2769 15.502 13.1886C15.4135 13.1001 15.3103 13.0558 15.1923 13.0558C15.0744 13.0558 14.9713 13.1001 14.8828 13.1886C14.7943 13.2769 14.75 13.3801 14.75 13.4981V15.8018C14.75 15.9196 14.7718 16.0337 14.8155 16.1441C14.859 16.2544 14.9276 16.3564 15.0213 16.4501L16.5463 17.9751C16.6334 18.0622 16.7357 18.1074 16.853 18.1106C16.9702 18.1137 17.0756 18.0686 17.1693 17.9751C17.2629 17.8814 17.3098 17.7776 17.3098 17.6636C17.3098 17.5494 17.2629 17.4455 17.1693 17.3518L15.6348 15.8153Z" fill="white"/>
</svg>
