<svg width="32" height="32" viewBox="0 0 32 32" fill="none" xmlns="http://www.w3.org/2000/svg">
    <mask id="mask0_2425_12117" style="mask-type:alpha" maskUnits="userSpaceOnUse" x="0" y="0" width="32" height="32">
        <rect width="32" height="32" fill="#D9D9D9"/>
    </mask>
    <g mask="url(#mask0_2425_12117)">
        <path d="M7.48701 27.9991C6.87323 27.9991 6.36079 27.7935 5.94967 27.3824C5.53856 26.9713 5.33301 26.4588 5.33301 25.8451V8.81974C5.33301 8.20596 5.53856 7.69352 5.94967 7.28241C6.36079 6.87129 6.87323 6.66574 7.48701 6.66574H9.84567V4.40941C9.84567 4.20252 9.91367 4.03107 10.0497 3.89507C10.1857 3.75929 10.357 3.69141 10.5637 3.69141C10.7706 3.69141 10.942 3.75929 11.078 3.89507C11.2138 4.03107 11.2817 4.20252 11.2817 4.40941V6.66574H20.8203V4.35807C20.8203 4.1683 20.884 4.00974 21.0113 3.88241C21.1387 3.75507 21.2972 3.69141 21.487 3.69141C21.6766 3.69141 21.835 3.75507 21.9623 3.88241C22.0899 4.00974 22.1537 4.1683 22.1537 4.35807V6.66574H24.5123C25.1261 6.66574 25.6386 6.87129 26.0497 7.28241C26.4608 7.69352 26.6663 8.20596 26.6663 8.81974V25.8451C26.6663 26.4588 26.4608 26.9713 26.0497 27.3824C25.6386 27.7935 25.1261 27.9991 24.5123 27.9991H7.48701ZM7.48701 26.6657H24.5123C24.7177 26.6657 24.9058 26.5803 25.0767 26.4094C25.2476 26.2385 25.333 26.0504 25.333 25.8451V14.1531H6.66634V25.8451C6.66634 26.0504 6.75179 26.2385 6.92267 26.4094C7.09356 26.5803 7.28167 26.6657 7.48701 26.6657ZM6.66634 12.8194H25.333V8.81974C25.333 8.61441 25.2476 8.42629 25.0767 8.25541C24.9058 8.08452 24.7177 7.99907 24.5123 7.99907H7.48701C7.28167 7.99907 7.09356 8.08452 6.92267 8.25541C6.75179 8.42629 6.66634 8.61441 6.66634 8.81974V12.8194Z" fill="#6A7E9E"/>
    </g>
    <path d="M12.715 24.135C12.3583 24.135 12.0233 24.0683 11.71 23.935C11.3967 23.7983 11.125 23.605 10.895 23.355C10.6683 23.105 10.5033 22.81 10.4 22.47L11.41 22.19C11.5067 22.5 11.675 22.7383 11.915 22.905C12.155 23.0683 12.4217 23.1483 12.715 23.145C12.9783 23.1417 13.21 23.08 13.41 22.96C13.61 22.84 13.7667 22.6783 13.88 22.475C13.9933 22.2683 14.05 22.0317 14.05 21.765C14.05 21.365 13.925 21.035 13.675 20.775C13.4283 20.515 13.105 20.385 12.705 20.385C12.5917 20.385 12.475 20.4017 12.355 20.435C12.2383 20.4683 12.1283 20.5117 12.025 20.565L11.535 19.74L14.075 17.495L14.185 17.795H10.685V16.8H15.015V17.795L12.905 19.825L12.895 19.485C13.3483 19.485 13.7417 19.5867 14.075 19.79C14.4083 19.99 14.665 20.2633 14.845 20.61C15.0283 20.9533 15.12 21.3383 15.12 21.765C15.12 22.225 15.0117 22.6333 14.795 22.99C14.5817 23.3467 14.2933 23.6267 13.93 23.83C13.57 24.0333 13.165 24.135 12.715 24.135ZM18.9327 24.15C18.4427 24.15 18.0093 24.0433 17.6327 23.83C17.256 23.6133 16.9593 23.3167 16.7427 22.94C16.5293 22.5633 16.4227 22.13 16.4227 21.64V19.16C16.4227 18.67 16.5293 18.2367 16.7427 17.86C16.9593 17.4833 17.256 17.1883 17.6327 16.975C18.0093 16.7583 18.4427 16.65 18.9327 16.65C19.4227 16.65 19.856 16.7583 20.2327 16.975C20.6093 17.1883 20.9043 17.4833 21.1177 17.86C21.3343 18.2367 21.4427 18.67 21.4427 19.16V21.64C21.4427 22.13 21.3343 22.5633 21.1177 22.94C20.9043 23.3167 20.6093 23.6133 20.2327 23.83C19.856 24.0433 19.4227 24.15 18.9327 24.15ZM18.9327 23.15C19.1993 23.15 19.441 23.0867 19.6577 22.96C19.8777 22.83 20.0527 22.6567 20.1827 22.44C20.3127 22.22 20.3777 21.975 20.3777 21.705V19.085C20.3777 18.8183 20.3127 18.5767 20.1827 18.36C20.0527 18.14 19.8777 17.9667 19.6577 17.84C19.441 17.71 19.1993 17.645 18.9327 17.645C18.666 17.645 18.4227 17.71 18.2027 17.84C17.986 17.9667 17.8127 18.14 17.6827 18.36C17.5527 18.5767 17.4877 18.8183 17.4877 19.085V21.705C17.4877 21.975 17.5527 22.22 17.6827 22.44C17.8127 22.6567 17.986 22.83 18.2027 22.96C18.4227 23.0867 18.666 23.15 18.9327 23.15Z" fill="#6A7E9E"/>
</svg>
