<svg width="27" height="26" viewBox="0 0 27 26" fill="none" xmlns="http://www.w3.org/2000/svg">
    <path d="M13.4997 14.4076L17.597 18.5053C17.7817 18.6897 18.0138 18.7842 18.2933 18.7886C18.5727 18.7928 18.809 18.6984 19.0023 18.5053C19.1955 18.3119 19.292 18.0777 19.292 17.8026C19.292 17.5275 19.1955 17.2933 19.0023 17.0999L14.9047 13.0026L19.0023 8.90527C19.1868 8.7206 19.2812 8.48849 19.2857 8.20894C19.2899 7.92961 19.1955 7.69327 19.0023 7.49994C18.809 7.30683 18.5748 7.21027 18.2997 7.21027C18.0246 7.21027 17.7903 7.30683 17.597 7.49994L13.4997 11.5976L9.40234 7.49994C9.21767 7.31549 8.98556 7.22105 8.70601 7.2166C8.42668 7.21238 8.19034 7.30683 7.99701 7.49994C7.8039 7.69327 7.70734 7.92749 7.70734 8.2026C7.70734 8.47772 7.8039 8.71194 7.99701 8.90527L12.0947 13.0026L7.99701 17.0999C7.81256 17.2846 7.71812 17.5167 7.71368 17.7963C7.70945 18.0756 7.8039 18.3119 7.99701 18.5053C8.19034 18.6984 8.42456 18.7949 8.69967 18.7949C8.97479 18.7949 9.20901 18.6984 9.40234 18.5053L13.4997 14.4076ZM13.502 25.6693C11.75 25.6693 10.1032 25.3368 8.56167 24.6719C7.02012 24.007 5.67923 23.1047 4.53901 21.9649C3.39879 20.8252 2.49601 19.4848 1.83067 17.9439C1.16556 16.403 0.833008 14.7567 0.833008 13.0049C0.833008 11.2529 1.16545 9.60616 1.83034 8.0646C2.49523 6.52305 3.39756 5.18216 4.53734 4.04194C5.67712 2.90172 7.01745 1.99894 8.55834 1.3336C10.0992 0.668493 11.7456 0.335938 13.4973 0.335938C15.2493 0.335938 16.8961 0.668381 18.4377 1.33327C19.9792 1.99816 21.3201 2.90049 22.4603 4.04027C23.6006 5.18005 24.5033 6.52038 25.1687 8.06127C25.8338 9.60216 26.1663 11.2485 26.1663 13.0003C26.1663 14.7523 25.8339 16.399 25.169 17.9406C24.5041 19.4822 23.6018 20.8231 22.462 21.9633C21.3222 23.1035 19.9819 24.0063 18.441 24.6716C16.9001 25.3367 15.2538 25.6693 13.502 25.6693ZM13.4997 23.6693C16.4775 23.6693 18.9997 22.6359 21.0663 20.5693C23.133 18.5026 24.1663 15.9804 24.1663 13.0026C24.1663 10.0248 23.133 7.5026 21.0663 5.43594C18.9997 3.36927 16.4775 2.33594 13.4997 2.33594C10.5219 2.33594 7.99967 3.36927 5.93301 5.43594C3.86634 7.5026 2.83301 10.0248 2.83301 13.0026C2.83301 15.9804 3.86634 18.5026 5.93301 20.5693C7.99967 22.6359 10.5219 23.6693 13.4997 23.6693Z" fill="#FFB5BE"/>
</svg>
