<svg width="24" height="20" viewBox="0 0 24 20" fill="none" xmlns="http://www.w3.org/2000/svg">
    <path d="M24 2.82197V17.1806C24 17.7944 23.7944 18.3069 23.3833 18.718C22.9722 19.1291 22.4598 19.3346 21.846 19.3346H2.154C1.54022 19.3346 1.02778 19.1291 0.616667 18.718C0.205556 18.3069 0 17.7944 0 17.1806V2.82197C0 2.20819 0.205556 1.69575 0.616667 1.28464C1.02778 0.873524 1.54022 0.667969 2.154 0.667969H21.846C22.4598 0.667969 22.9722 0.873524 23.3833 1.28464C23.7944 1.69575 24 2.20819 24 2.82197ZM1.33333 5.74497H22.6667V2.82197C22.6667 2.61664 22.5812 2.42852 22.4103 2.25764C22.2394 2.08675 22.0513 2.0013 21.846 2.0013H2.154C1.94867 2.0013 1.76056 2.08675 1.58967 2.25764C1.41878 2.42852 1.33333 2.61664 1.33333 2.82197V5.74497ZM1.33333 8.9243V17.1806C1.33333 17.386 1.41878 17.5741 1.58967 17.745C1.76056 17.9159 1.94867 18.0013 2.154 18.0013H21.846C22.0513 18.0013 22.2394 17.9159 22.4103 17.745C22.5812 17.5741 22.6667 17.386 22.6667 17.1806V8.9243H1.33333Z" fill="#6A7E9E"/>
</svg>
