<svg width="18" height="18" viewBox="0 0 18 18" fill="none" xmlns="http://www.w3.org/2000/svg">
    <path d="M2 8C1.591 8 1.23875 7.85225 0.94325 7.55675C0.64775 7.26125 0.5 6.909 0.5 6.5V2C0.5 1.591 0.64775 1.23875 0.94325 0.94325C1.23875 0.64775 1.591 0.5 2 0.5H6.5C6.909 0.5 7.26125 0.64775 7.55675 0.94325C7.85225 1.23875 8 1.591 8 2V6.5C8 6.909 7.85225 7.26125 7.55675 7.55675C7.26125 7.85225 6.909 8 6.5 8H2ZM2 17.5C1.591 17.5 1.23875 17.3523 0.94325 17.0568C0.64775 16.7613 0.5 16.409 0.5 16V11.5C0.5 11.091 0.64775 10.7388 0.94325 10.4433C1.23875 10.1478 1.591 10 2 10H6.5C6.909 10 7.26125 10.1478 7.55675 10.4433C7.85225 10.7388 8 11.091 8 11.5V16C8 16.409 7.85225 16.7613 7.55675 17.0568C7.26125 17.3523 6.909 17.5 6.5 17.5H2ZM11.5 8C11.091 8 10.7387 7.85225 10.4432 7.55675C10.1477 7.26125 10 6.909 10 6.5V2C10 1.591 10.1477 1.23875 10.4432 0.94325C10.7387 0.64775 11.091 0.5 11.5 0.5H16C16.409 0.5 16.7613 0.64775 17.0568 0.94325C17.3523 1.23875 17.5 1.591 17.5 2V6.5C17.5 6.909 17.3523 7.26125 17.0568 7.55675C16.7613 7.85225 16.409 8 16 8H11.5ZM11.5 17.5C11.091 17.5 10.7387 17.3523 10.4432 17.0568C10.1477 16.7613 10 16.409 10 16V11.5C10 11.091 10.1477 10.7388 10.4432 10.4433C10.7387 10.1478 11.091 10 11.5 10H16C16.409 10 16.7613 10.1478 17.0568 10.4433C17.3523 10.7388 17.5 11.091 17.5 11.5V16C17.5 16.409 17.3523 16.7613 17.0568 17.0568C16.7613 17.3523 16.409 17.5 16 17.5H11.5ZM2 6.5H6.5V2H2V6.5ZM11.5 6.5H16V2H11.5V6.5ZM11.5 16H16V11.5H11.5V16ZM2 16H6.5V11.5H2V16Z" fill="#556C91"/>
</svg>
