<svg width="19" height="18" viewBox="0 0 19 18" fill="none" xmlns="http://www.w3.org/2000/svg">
    <path d="M8.0615 11.4923L5.5655 8.99625C5.47183 8.90258 5.35708 8.85258 5.22125 8.84625C5.08525 8.83975 4.96408 8.88975 4.85775 8.99625C4.75125 9.10258 4.698 9.2205 4.698 9.35C4.698 9.4795 4.75125 9.59742 4.85775 9.70375L7.49625 12.3422C7.65775 12.5037 7.84617 12.5845 8.0615 12.5845C8.27683 12.5845 8.46533 12.5037 8.627 12.3422L14.1038 6.8655C14.1974 6.77183 14.2474 6.65708 14.2538 6.52125C14.2603 6.38525 14.2103 6.26408 14.1038 6.15775C13.9974 6.05125 13.8795 5.998 13.75 5.998C13.6205 5.998 13.5026 6.05125 13.3962 6.15775L8.0615 11.4923ZM9.50325 18C8.25875 18 7.08867 17.7638 5.993 17.2915C4.8975 16.8192 3.9445 16.1782 3.134 15.3685C2.3235 14.5588 1.68192 13.6067 1.20925 12.512C0.736417 11.4175 0.5 10.2479 0.5 9.00325C0.5 7.75875 0.736167 6.58867 1.2085 5.493C1.68083 4.3975 2.32183 3.4445 3.1315 2.634C3.94117 1.8235 4.89333 1.18192 5.988 0.70925C7.0825 0.236417 8.25208 0 9.49675 0C10.7413 0 11.9113 0.236167 13.007 0.708501C14.1025 1.18083 15.0555 1.82183 15.866 2.6315C16.6765 3.44117 17.3181 4.39333 17.7908 5.488C18.2636 6.5825 18.5 7.75208 18.5 8.99675C18.5 10.2413 18.2638 11.4113 17.7915 12.507C17.3192 13.6025 16.6782 14.5555 15.8685 15.366C15.0588 16.1765 14.1067 16.8181 13.012 17.2908C11.9175 17.7636 10.7479 18 9.50325 18ZM9.5 17C11.7333 17 13.625 16.225 15.175 14.675C16.725 13.125 17.5 11.2333 17.5 9C17.5 6.76667 16.725 4.875 15.175 3.325C13.625 1.775 11.7333 1 9.5 1C7.26667 1 5.375 1.775 3.825 3.325C2.275 4.875 1.5 6.76667 1.5 9C1.5 11.2333 2.275 13.125 3.825 14.675C5.375 16.225 7.26667 17 9.5 17Z" fill="#181818"/>
</svg>
