<svg width="21" height="20" viewBox="0 0 21 20" fill="none" xmlns="http://www.w3.org/2000/svg">
    <path d="M17.5706 17.0711C16.5925 18.0492 15.4876 18.7829 14.2561 19.2719C13.0245 19.761 11.7723 20.0056 10.4996 20.0056C9.22677 20.0056 7.9746 19.761 6.74305 19.2719C5.51151 18.7829 4.40665 18.0492 3.42849 17.0711C2.45033 16.0929 1.7167 14.988 1.22762 13.7565C0.738537 12.525 0.493996 11.2728 0.493996 10C0.493996 8.72721 0.738537 7.47504 1.22762 6.2435C1.7167 5.01195 2.45033 3.9071 3.42849 2.92893C4.40665 1.95077 5.51151 1.21714 6.74305 0.728062C7.9746 0.23898 9.22677 -0.00556169 10.4996 -0.00556136C11.7723 -0.00556102 13.0245 0.23898 14.2561 0.728063C15.4876 1.21715 16.5925 1.95077 17.5706 2.92893C18.5488 3.9071 19.2824 5.01195 19.7715 6.2435C20.2606 7.47504 20.5051 8.72721 20.5051 10C20.5051 11.2728 20.2606 12.525 19.7715 13.7565C19.2824 14.988 18.5488 16.0929 17.5706 17.0711ZM11.3481 10.5657L11.3481 11.8385C11.3481 12.0978 11.4483 12.3276 11.6486 12.5279C11.849 12.7283 12.0788 12.8284 12.338 12.8284C12.5973 12.8284 12.8271 12.7283 13.0275 12.5279C13.2278 12.3276 13.328 12.0978 13.328 11.8385V8.16152C13.328 7.87868 13.2337 7.64298 13.0451 7.45442C12.8566 7.26585 12.6209 7.17157 12.338 7.17157L8.66108 7.17157C8.40181 7.17157 8.172 7.27175 7.97165 7.47209C7.7713 7.67244 7.67113 7.90225 7.67113 8.16152C7.67113 8.4208 7.7713 8.6506 7.97165 8.85095C8.172 9.0513 8.40181 9.15147 8.66108 9.15147H9.93387L7.67113 11.4142C7.47078 11.6146 7.37061 11.8503 7.37061 12.1213C7.37061 12.3924 7.47078 12.6281 7.67113 12.8284C7.87148 13.0288 8.10718 13.1289 8.37824 13.1289C8.64929 13.1289 8.885 13.0288 9.08534 12.8284L11.3481 10.5657Z" fill="#FF455C"/>
</svg>
