<svg width="20" height="20" viewBox="0 0 20 20" fill="none" xmlns="http://www.w3.org/2000/svg">
    <path d="M2.92893 17.0726C1.95077 16.0944 1.21715 14.9896 0.728063 13.758C0.23898 12.5265 -0.00556102 11.2743 -0.00556136 10.0015C-0.00556169 8.72872 0.23898 7.47655 0.728062 6.24501C1.21714 5.01346 1.95077 3.90861 2.92893 2.93044C3.9071 1.95228 5.01195 1.21866 6.2435 0.729573C7.47504 0.240491 8.72721 -0.00405047 10 -0.00405047C11.2728 -0.00405047 12.525 0.240491 13.7565 0.729573C14.988 1.21866 16.0929 1.95228 17.0711 2.93044C18.0492 3.90861 18.7829 5.01346 19.2719 6.24501C19.761 7.47655 20.0056 8.72872 20.0056 10.0015C20.0056 11.2743 19.761 12.5265 19.2719 13.758C18.7829 14.9896 18.0492 16.0944 17.0711 17.0726C16.0929 18.0507 14.988 18.7844 13.7565 19.2734C12.525 19.7625 11.2728 20.0071 10 20.0071C8.72721 20.0071 7.47504 19.7625 6.2435 19.2734C5.01195 18.7844 3.9071 18.0507 2.92893 17.0726ZM9.43431 10.85L8.16152 10.85C7.90225 10.85 7.67244 10.9502 7.47209 11.1506C7.27175 11.3509 7.17157 11.5807 7.17157 11.84C7.17157 12.0993 7.27175 12.3291 7.47209 12.5294C7.67244 12.7298 7.90225 12.8299 8.16152 12.8299H11.8385C12.1213 12.8299 12.357 12.7357 12.5456 12.5471C12.7341 12.3585 12.8284 12.1228 12.8284 11.84L12.8284 8.16303C12.8284 7.90376 12.7283 7.67395 12.5279 7.4736C12.3276 7.27326 12.0978 7.17308 11.8385 7.17308C11.5792 7.17308 11.3494 7.27326 11.149 7.4736C10.9487 7.67395 10.8485 7.90376 10.8485 8.16303V9.43582L8.58579 7.17308C8.38544 6.97274 8.14974 6.87256 7.87868 6.87256C7.60762 6.87256 7.37192 6.97274 7.17157 7.17308C6.97123 7.37343 6.87105 7.60913 6.87105 7.88019C6.87105 8.15125 6.97123 8.38695 7.17157 8.5873L9.43431 10.85Z" fill="#3FAF55"/>
</svg>
