<svg width="18" height="18" viewBox="0 0 18 18" fill="none" xmlns="http://www.w3.org/2000/svg">
    <path d="M9.83366 8.66406V5.66406C9.83366 5.42795 9.7538 5.23003 9.59408 5.07031C9.43435 4.91059 9.23644 4.83073 9.00033 4.83073C8.76421 4.83073 8.5663 4.91059 8.40658 5.07031C8.24685 5.23003 8.16699 5.42795 8.16699 5.66406V8.97656C8.16699 9.08767 8.18783 9.19531 8.22949 9.29948C8.27116 9.40365 8.33366 9.4974 8.41699 9.58073L11.167 12.3307C11.3198 12.4835 11.5142 12.5599 11.7503 12.5599C11.9864 12.5599 12.1809 12.4835 12.3337 12.3307C12.4864 12.178 12.5628 11.9835 12.5628 11.7474C12.5628 11.5113 12.4864 11.3168 12.3337 11.1641L9.83366 8.66406ZM9.00033 17.3307C7.84755 17.3307 6.76421 17.112 5.75033 16.6745C4.73644 16.237 3.85449 15.6432 3.10449 14.8932C2.35449 14.1432 1.76074 13.2613 1.32324 12.2474C0.885742 11.2335 0.666992 10.1502 0.666992 8.9974C0.666992 7.84462 0.885742 6.76128 1.32324 5.7474C1.76074 4.73351 2.35449 3.85156 3.10449 3.10156C3.85449 2.35156 4.73644 1.75781 5.75033 1.32031C6.76421 0.882812 7.84755 0.664062 9.00033 0.664062C10.1531 0.664062 11.2364 0.882812 12.2503 1.32031C13.2642 1.75781 14.1462 2.35156 14.8962 3.10156C15.6462 3.85156 16.2399 4.73351 16.6774 5.7474C17.1149 6.76128 17.3337 7.84462 17.3337 8.9974C17.3337 10.1502 17.1149 11.2335 16.6774 12.2474C16.2399 13.2613 15.6462 14.1432 14.8962 14.8932C14.1462 15.6432 13.2642 16.237 12.2503 16.6745C11.2364 17.112 10.1531 17.3307 9.00033 17.3307Z" fill="#46C35F"/>
</svg>
