<svg width="18" height="18" viewBox="0 0 18 18" fill="none" xmlns="http://www.w3.org/2000/svg">
    <path d="M9.68783 8.72286V5.10547C9.68783 4.91068 9.6219 4.74736 9.49005 4.61551C9.35821 4.48382 9.19489 4.41797 9.0001 4.41797C8.80515 4.41797 8.64191 4.48382 8.51037 4.61551C8.37867 4.74736 8.31283 4.91068 8.31283 5.10547V8.93439C8.31283 9.04225 8.33284 9.14675 8.37287 9.24788C8.41274 9.34902 8.47561 9.44252 8.56147 9.52839L11.7011 12.668C11.8279 12.7949 11.9874 12.8599 12.1796 12.8628C12.3717 12.8657 12.5342 12.8007 12.667 12.668C12.7998 12.5352 12.8661 12.3742 12.8661 12.1849C12.8661 11.9957 12.7998 11.8348 12.667 11.702L9.68783 8.72286ZM9.00193 17.7096C7.79743 17.7096 6.66527 17.4811 5.60545 17.024C4.54563 16.5669 3.62377 15.9465 2.83987 15.1629C2.05596 14.3793 1.4353 13.4578 0.977888 12.3985C0.520624 11.3391 0.291992 10.2073 0.291992 9.00291C0.291992 7.79841 0.520548 6.66625 0.977659 5.60643C1.43477 4.54661 2.05512 3.62475 2.83872 2.84084C3.62232 2.05694 4.5438 1.43628 5.60316 0.978864C6.66252 0.521601 7.79437 0.292969 8.99872 0.292969C10.2032 0.292969 11.3354 0.521524 12.3952 0.978635C13.455 1.43575 14.3769 2.0561 15.1608 2.8397C15.9447 3.6233 16.5653 4.54477 17.0228 5.60414C17.48 6.6635 17.7087 7.79535 17.7087 8.9997C17.7087 10.2042 17.4801 11.3364 17.023 12.3962C16.5659 13.456 15.9455 14.3779 15.1619 15.1618C14.3783 15.9457 13.4569 16.5663 12.3975 17.0237C11.3381 17.481 10.2063 17.7096 9.00193 17.7096ZM9.00033 16.3346C11.0323 16.3346 12.7625 15.6204 14.191 14.1919C15.6194 12.7635 16.3337 11.0332 16.3337 9.0013C16.3337 6.96936 15.6194 5.23915 14.191 3.81068C12.7625 2.38221 11.0323 1.66797 9.00033 1.66797C6.96838 1.66797 5.23817 2.38221 3.8097 3.81068C2.38123 5.23915 1.66699 6.96936 1.66699 9.0013C1.66699 11.0332 2.38123 12.7635 3.8097 14.1919C5.23817 15.6204 6.96838 16.3346 9.00033 16.3346Z" fill="#2A2A2A"/>
</svg>
