<svg width="24" height="16" viewBox="0 0 24 16" fill="none" xmlns="http://www.w3.org/2000/svg">
    <path d="M2.154 16C1.54022 16 1.02778 15.7944 0.616667 15.3833C0.205556 14.9722 0 14.4598 0 13.846V2.154C0 1.54022 0.205556 1.02778 0.616667 0.616667C1.02778 0.205556 1.54022 0 2.154 0H21.846C22.4598 0 22.9722 0.205556 23.3833 0.616667C23.7944 1.02778 24 1.54022 24 2.154V13.846C24 14.4598 23.7944 14.9722 23.3833 15.3833C22.9722 15.7944 22.4598 16 21.846 16H2.154ZM2.154 14.6667H21.846C22.0513 14.6667 22.2394 14.5812 22.4103 14.4103C22.5812 14.2394 22.6667 14.0513 22.6667 13.846V2.154C22.6667 1.94867 22.5812 1.76056 22.4103 1.58967C22.2394 1.41878 22.0513 1.33333 21.846 1.33333H2.154C1.94867 1.33333 1.76056 1.41878 1.58967 1.58967C1.41878 1.76056 1.33333 1.94867 1.33333 2.154V13.846C1.33333 14.0513 1.41878 14.2394 1.58967 14.4103C1.76056 14.5812 1.94867 14.6667 2.154 14.6667ZM19.7437 11.7437H17C16.8307 11.7437 16.6901 11.7997 16.5783 11.9117C16.4663 12.0234 16.4103 12.164 16.4103 12.3333C16.4103 12.5027 16.4663 12.6432 16.5783 12.755C16.6901 12.867 16.8307 12.923 17 12.923H19.846C20.1556 12.923 20.4124 12.8209 20.6167 12.6167C20.8209 12.4124 20.923 12.1556 20.923 11.846V9C20.923 8.83067 20.867 8.69011 20.755 8.57833C20.6432 8.46633 20.5027 8.41033 20.3333 8.41033C20.164 8.41033 20.0234 8.46633 19.9117 8.57833C19.7997 8.69011 19.7437 8.83067 19.7437 9V11.7437ZM12 11.1793C12.8718 11.1793 13.6197 10.8674 14.2437 10.2437C14.8674 9.61967 15.1793 8.87178 15.1793 8C15.1793 7.12822 14.8674 6.38033 14.2437 5.75633C13.6197 5.13256 12.8718 4.82067 12 4.82067C11.1282 4.82067 10.3803 5.13256 9.75633 5.75633C9.13256 6.38033 8.82067 7.12822 8.82067 8C8.82067 8.87178 9.13256 9.61967 9.75633 10.2437C10.3803 10.8674 11.1282 11.1793 12 11.1793ZM4.25633 4.25633H7C7.16933 4.25633 7.30989 4.20033 7.42167 4.08833C7.53367 3.97656 7.58967 3.836 7.58967 3.66667C7.58967 3.49733 7.53367 3.35678 7.42167 3.245C7.30989 3.133 7.16933 3.077 7 3.077H4.154C3.84444 3.077 3.58756 3.17911 3.38333 3.38333C3.17911 3.58756 3.077 3.84444 3.077 4.154V7C3.077 7.16933 3.133 7.30989 3.245 7.42167C3.35678 7.53367 3.49733 7.58967 3.66667 7.58967C3.836 7.58967 3.97656 7.53367 4.08833 7.42167C4.20033 7.30989 4.25633 7.16933 4.25633 7V4.25633Z" fill="#6A7E9E"/>
</svg>
