<svg width="16" height="18" viewBox="0 0 16 18" fill="none" xmlns="http://www.w3.org/2000/svg">
    <path d="M3.30775 17.5017C2.81058 17.5017 2.385 17.3247 2.031 16.9707C1.677 16.6167 1.5 16.1911 1.5 15.6939V3.00169H1.25C1.0375 3.00169 0.859417 2.92977 0.71575 2.78594C0.571917 2.6421 0.5 2.46394 0.5 2.25144C0.5 2.03877 0.571917 1.86069 0.71575 1.71719C0.859417 1.57352 1.0375 1.50169 1.25 1.50169H5C5 1.25685 5.08625 1.04819 5.25875 0.875688C5.43108 0.703355 5.63967 0.617188 5.8845 0.617188H10.1155C10.3603 0.617188 10.5689 0.703355 10.7413 0.875688C10.9138 1.04819 11 1.25685 11 1.50169H14.75C14.9625 1.50169 15.1406 1.5736 15.2843 1.71744C15.4281 1.86127 15.5 2.03944 15.5 2.25194C15.5 2.4646 15.4281 2.64269 15.2843 2.78619C15.1406 2.92985 14.9625 3.00169 14.75 3.00169H14.5V15.6939C14.5 16.1911 14.323 16.6167 13.969 16.9707C13.615 17.3247 13.1894 17.5017 12.6923 17.5017H3.30775ZM13 3.00169H3V15.6939C3 15.7838 3.02883 15.8575 3.0865 15.9152C3.14417 15.9729 3.21792 16.0017 3.30775 16.0017H12.6923C12.7821 16.0017 12.8558 15.9729 12.9135 15.9152C12.9712 15.8575 13 15.7838 13 15.6939V3.00169ZM6.15425 14.0017C6.36675 14.0017 6.54483 13.9299 6.6885 13.7862C6.832 13.6424 6.90375 13.4642 6.90375 13.2517V5.75169C6.90375 5.53919 6.83183 5.36102 6.688 5.21719C6.54433 5.07352 6.36617 5.00169 6.1535 5.00169C5.941 5.00169 5.76292 5.07352 5.61925 5.21719C5.47575 5.36102 5.404 5.53919 5.404 5.75169V13.2517C5.404 13.4642 5.47583 13.6424 5.6195 13.7862C5.76333 13.9299 5.94158 14.0017 6.15425 14.0017ZM9.8465 14.0017C10.059 14.0017 10.2371 13.9299 10.3807 13.7862C10.5243 13.6424 10.596 13.4642 10.596 13.2517V5.75169C10.596 5.53919 10.5242 5.36102 10.3805 5.21719C10.2367 5.07352 10.0584 5.00169 9.84575 5.00169C9.63325 5.00169 9.45517 5.07352 9.3115 5.21719C9.168 5.36102 9.09625 5.53919 9.09625 5.75169V13.2517C9.09625 13.4642 9.16817 13.6424 9.312 13.7862C9.45567 13.9299 9.63383 14.0017 9.8465 14.0017Z" fill="#808080"/>
</svg>
