<svg width="24" height="24" viewBox="0 0 24 24" fill="none" xmlns="http://www.w3.org/2000/svg">
    <path d="M15.4973 10.6513L10.041 5.195C10.3008 5.02744 10.5961 4.89745 10.927 4.805C11.2577 4.71278 11.6324 4.66667 12.0513 4.66667C13.1573 4.66667 14.0919 5.05256 14.855 5.82433C15.6183 6.59611 16 7.54356 16 8.66667C16 9.03422 15.9496 9.40478 15.8487 9.77833C15.7478 10.1517 15.6307 10.4427 15.4973 10.6513ZM4.26167 19.3127C5.44611 18.4631 6.66145 17.8098 7.90767 17.3527C9.15389 16.8953 10.518 16.6667 12 16.6667C13.0496 16.6667 14.0056 16.7944 14.868 17.05C15.7304 17.3056 16.4386 17.5692 16.9923 17.841L11.8027 12.6513C10.7411 12.5693 9.86378 12.186 9.17067 11.5013C8.47733 10.8167 8.09822 9.94356 8.03333 8.882L4.054 4.90267C3.24022 5.81378 2.58333 6.862 2.08333 8.04733C1.58333 9.23289 1.33333 10.5504 1.33333 12C1.33333 13.482 1.597 14.8264 2.12433 16.0333C2.65167 17.2402 3.36411 18.3333 4.26167 19.3127ZM20.041 18.995C20.7863 18.0839 21.4102 17.0527 21.9127 15.9013C22.4153 14.75 22.6667 13.4496 22.6667 12C22.6667 9.04445 21.6278 6.52778 19.55 4.45C17.4722 2.37222 14.9556 1.33333 12 1.33333C10.636 1.33333 9.36122 1.56756 8.17567 2.036C6.99011 2.50422 5.93322 3.14522 5.005 3.959L20.041 18.995ZM12 24C10.3316 24 8.76745 23.6884 7.30767 23.0653C5.84789 22.4422 4.57656 21.5892 3.49367 20.5063C2.41078 19.4234 1.55778 18.1521 0.934667 16.6923C0.311555 15.2326 0 13.6684 0 12C0 10.3264 0.311555 8.76111 0.934667 7.304C1.55778 5.84667 2.41078 4.57656 3.49367 3.49367C4.57656 2.41078 5.84789 1.55778 7.30767 0.934666C8.76745 0.311555 10.3316 0 12 0C13.6736 0 15.2389 0.311555 16.696 0.934666C18.1533 1.55778 19.4234 2.41078 20.5063 3.49367C21.5892 4.57656 22.4422 5.84667 23.0653 7.304C23.6884 8.76111 24 10.3264 24 12C24 13.6684 23.6884 15.2326 23.0653 16.6923C22.4422 18.1521 21.5892 19.4234 20.5063 20.5063C19.4234 21.5892 18.1533 22.4422 16.696 23.0653C15.2389 23.6884 13.6736 24 12 24ZM12 22.6667C13.2462 22.6667 14.4599 22.4431 15.641 21.996C16.8221 21.5491 17.8631 20.9692 18.764 20.2563C17.8973 19.5606 16.8478 19.0106 15.6153 18.6063C14.3829 18.2021 13.1778 18 12 18C10.8222 18 9.63844 18.1893 8.44867 18.568C7.25889 18.9467 6.188 19.5094 5.236 20.2563C6.13689 20.9692 7.17789 21.5491 8.359 21.996C9.54011 22.4431 10.7538 22.6667 12 22.6667Z" fill="#6A7E9E"/>
</svg>
