<svg width="20" height="20" viewBox="0 0 20 20" fill="none" xmlns="http://www.w3.org/2000/svg">
    <path d="M10.0017 19.5C8.68775 19.5 7.45267 19.2507 6.2965 18.752C5.14033 18.2533 4.13467 17.5766 3.2795 16.7218C2.42433 15.8669 1.74725 14.8617 1.24825 13.706C0.749417 12.5503 0.5 11.3156 0.5 10.0017C0.5 8.68775 0.749333 7.45267 1.248 6.2965C1.74667 5.14033 2.42342 4.13467 3.27825 3.2795C4.13308 2.42433 5.13833 1.74725 6.294 1.24825C7.44967 0.749417 8.68442 0.5 9.99825 0.5C11.3123 0.5 12.5473 0.749333 13.7035 1.248C14.8597 1.74667 15.8653 2.42342 16.7205 3.27825C17.5757 4.13308 18.2528 5.13833 18.7518 6.294C19.2506 7.44967 19.5 8.68442 19.5 9.99825C19.5 11.3123 19.2507 12.5473 18.752 13.7035C18.2533 14.8597 17.5766 15.8653 16.7218 16.7205C15.8669 17.5757 14.8617 18.2528 13.706 18.7518C12.5503 19.2506 11.3156 19.5 10.0017 19.5ZM9.975 16.8078C10.157 16.8078 10.3162 16.7394 10.4528 16.6028C10.5894 16.4663 10.6578 16.307 10.6578 16.125V15.5962C11.4334 15.4911 12.1357 15.1997 12.7645 14.722C13.3933 14.2445 13.7078 13.5205 13.7078 12.55C13.7078 11.85 13.5013 11.2308 13.0885 10.6923C12.6757 10.1539 11.8692 9.66808 10.6692 9.23475C9.61792 8.87575 8.91983 8.56483 8.575 8.302C8.23017 8.03917 8.05775 7.67183 8.05775 7.2C8.05775 6.72817 8.23433 6.34483 8.5875 6.05C8.94067 5.75517 9.42817 5.60775 10.05 5.60775C10.4218 5.60775 10.7472 5.67725 11.026 5.81625C11.3048 5.95542 11.5404 6.141 11.7327 6.373C11.8546 6.52183 11.9956 6.62567 12.1557 6.6845C12.3161 6.7435 12.4678 6.741 12.611 6.677C12.8065 6.6 12.9401 6.46858 13.0117 6.28275C13.0834 6.09675 13.0654 5.92625 12.9578 5.77125C12.6911 5.39425 12.3603 5.08042 11.9653 4.82975C11.5704 4.57908 11.1512 4.43708 10.7078 4.40375V3.875C10.7078 3.693 10.6394 3.53375 10.5027 3.39725C10.3662 3.26058 10.207 3.19225 10.025 3.19225C9.843 3.19225 9.68375 3.26058 9.54725 3.39725C9.41058 3.53375 9.34225 3.693 9.34225 3.875V4.40375C8.48975 4.56792 7.835 4.91375 7.378 5.44125C6.92083 5.96892 6.69225 6.55517 6.69225 7.2C6.69225 7.95133 6.91983 8.55583 7.375 9.0135C7.83017 9.47117 8.57183 9.88458 9.6 10.2537C10.6628 10.6436 11.3888 10.9933 11.778 11.303C12.167 11.6125 12.3615 12.0282 12.3615 12.55C12.3615 13.177 12.1353 13.6324 11.6827 13.9163C11.2301 14.2003 10.7192 14.3422 10.15 14.3422C9.675 14.3422 9.24567 14.2237 8.862 13.9865C8.47833 13.7493 8.157 13.4064 7.898 12.9578C7.79683 12.7821 7.66033 12.6638 7.4885 12.603C7.31667 12.542 7.1485 12.5439 6.984 12.6088C6.80667 12.6736 6.67683 12.7967 6.5945 12.978C6.51233 13.1593 6.51158 13.3327 6.59225 13.498C6.87175 14.0583 7.2365 14.5064 7.6865 14.8422C8.1365 15.1783 8.67175 15.4129 9.29225 15.5462V16.125C9.29225 16.307 9.36058 16.4663 9.49725 16.6028C9.63375 16.7394 9.793 16.8078 9.975 16.8078Z" fill="white"/>
</svg>
