<svg width="4" height="16" viewBox="0 0 4 16" fill="none" xmlns="http://www.w3.org/2000/svg">
    <path d="M2 15.2729C1.5875 15.2729 1.23442 15.126 0.94075 14.8321C0.646917 14.5385 0.5 14.1854 0.5 13.7729C0.5 13.3604 0.646917 13.0072 0.94075 12.7134C1.23442 12.4197 1.5875 12.2729 2 12.2729C2.4125 12.2729 2.76558 12.4197 3.05925 12.7134C3.35308 13.0072 3.5 13.3604 3.5 13.7729C3.5 14.1854 3.35308 14.5385 3.05925 14.8321C2.76558 15.126 2.4125 15.2729 2 15.2729ZM2 9.50363C1.5875 9.50363 1.23442 9.35671 0.94075 9.06288C0.646917 8.76921 0.5 8.41613 0.5 8.00363C0.5 7.59113 0.646917 7.23804 0.94075 6.94438C1.23442 6.65054 1.5875 6.50363 2 6.50363C2.4125 6.50363 2.76558 6.65054 3.05925 6.94438C3.35308 7.23804 3.5 7.59113 3.5 8.00363C3.5 8.41613 3.35308 8.76921 3.05925 9.06288C2.76558 9.35671 2.4125 9.50363 2 9.50363ZM2 3.73438C1.5875 3.73438 1.23442 3.58754 0.94075 3.29388C0.646917 3.00004 0.5 2.64688 0.5 2.23438C0.5 1.82187 0.646917 1.46879 0.94075 1.17513C1.23442 0.881292 1.5875 0.734375 2 0.734375C2.4125 0.734375 2.76558 0.881292 3.05925 1.17513C3.35308 1.46879 3.5 1.82187 3.5 2.23438C3.5 2.64688 3.35308 3.00004 3.05925 3.29388C2.76558 3.58754 2.4125 3.73438 2 3.73438Z" fill="#2A2A2A"/>
</svg>
