<svg width="18" height="22" viewBox="0 0 18 22" fill="none" xmlns="http://www.w3.org/2000/svg">
    <path d="M13.25 15.8057L11.9173 14.473C11.7788 14.3347 11.6063 14.2655 11.4 14.2655C11.1937 14.2655 11.0213 14.3347 10.8828 14.473C10.7443 14.6115 10.675 14.7861 10.675 14.9967C10.675 15.2074 10.7443 15.3809 10.8828 15.5173L13.3673 18.0115C13.5481 18.1923 13.759 18.2828 14 18.2828C14.241 18.2828 14.4519 18.1923 14.6328 18.0115L17.127 15.5173C17.2653 15.3809 17.3345 15.2074 17.3345 14.9967C17.3345 14.7861 17.2653 14.6115 17.127 14.473C16.9885 14.3347 16.8139 14.2655 16.6033 14.2655C16.3926 14.2655 16.2191 14.3347 16.0828 14.473L14.75 15.8057V12.025C14.75 11.8125 14.6781 11.6344 14.5343 11.4908C14.3904 11.3469 14.2122 11.275 13.9998 11.275C13.7871 11.275 13.609 11.3469 13.4655 11.4908C13.3218 11.6344 13.25 11.8125 13.25 12.025V15.8057ZM11 20.25H17C17.2125 20.25 17.3906 20.3219 17.5343 20.4657C17.6781 20.6096 17.75 20.7878 17.75 21.0002C17.75 21.2129 17.6781 21.391 17.5343 21.5345C17.3906 21.6782 17.2125 21.75 17 21.75H11C10.7875 21.75 10.6094 21.6781 10.4658 21.5343C10.3219 21.3904 10.25 21.2122 10.25 20.9998C10.25 20.7871 10.3219 20.609 10.4658 20.4655C10.6094 20.3218 10.7875 20.25 11 20.25ZM2.05775 17.75C1.56542 17.75 1.14108 17.5718 0.78475 17.2153C0.42825 16.8589 0.25 16.4346 0.25 15.9423V2.05775C0.25 1.56542 0.42825 1.14108 0.78475 0.78475C1.14108 0.42825 1.56542 0.25 2.05775 0.25H8.252C8.49583 0.25 8.72825 0.296833 8.94925 0.3905C9.17025 0.484 9.36283 0.612834 9.527 0.777L14.223 5.473C14.3872 5.63717 14.516 5.82975 14.6095 6.05075C14.7032 6.27175 14.75 6.50417 14.75 6.748V8.33275C14.75 8.54525 14.6781 8.72333 14.5343 8.867C14.3904 9.01083 14.2122 9.08275 13.9998 9.08275C13.7871 9.08275 13.609 9.01083 13.4655 8.867C13.3218 8.72333 13.25 8.54525 13.25 8.33275V6.75H9.60575C9.22925 6.75 8.90917 6.61817 8.6455 6.3545C8.38183 6.09083 8.25 5.77075 8.25 5.39425V1.75H2.05775C1.98075 1.75 1.91025 1.78208 1.84625 1.84625C1.78208 1.91025 1.75 1.98075 1.75 2.05775V15.9423C1.75 16.0192 1.78208 16.0898 1.84625 16.1538C1.91025 16.2179 1.98075 16.25 2.05775 16.25H7.30775C7.52025 16.25 7.69833 16.3219 7.842 16.4657C7.98583 16.6096 8.05775 16.7878 8.05775 17.0002C8.05775 17.2129 7.98583 17.391 7.842 17.5345C7.69833 17.6782 7.52025 17.75 7.30775 17.75H2.05775Z" fill="#3FAF55"/>
</svg>
