<svg width="18" height="14" viewBox="0 0 18 14" fill="none" xmlns="http://www.w3.org/2000/svg">
    <path d="M1.9491 13.875C1.48603 13.875 1.09408 13.7146 0.773242 13.3938C0.452409 13.0729 0.291992 12.681 0.291992 12.2179V1.7821C0.291992 1.31903 0.452409 0.927083 0.773242 0.60625C1.09408 0.285417 1.48603 0.125 1.9491 0.125H16.0516C16.5146 0.125 16.9066 0.285417 17.2274 0.60625C17.5482 0.927083 17.7087 1.31903 17.7087 1.7821V12.2179C17.7087 12.681 17.5482 13.0729 17.2274 13.3938C16.9066 13.7146 16.5146 13.875 16.0516 13.875H1.9491ZM16.3337 2.82206L9.44628 7.231C9.37585 7.27087 9.30298 7.30227 9.22766 7.32519C9.15249 7.3481 9.07671 7.35956 9.00033 7.35956C8.92394 7.35956 8.84816 7.3481 8.77299 7.32519C8.69767 7.30227 8.6248 7.27087 8.55437 7.231L1.66699 2.82206V12.2179C1.66699 12.3002 1.69342 12.3678 1.74628 12.4207C1.79915 12.4736 1.86675 12.5 1.9491 12.5H16.0516C16.1339 12.5 16.2015 12.4736 16.2544 12.4207C16.3072 12.3678 16.3337 12.3002 16.3337 12.2179V2.82206ZM9.00033 6.08333L16.1927 1.5H1.80793L9.00033 6.08333ZM1.66699 3.03358V1.9856V2.01288V1.98377V3.03358Z" fill="#555555"/>
</svg>
