<svg width="26" height="26" viewBox="0 0 26 26" fill="none" xmlns="http://www.w3.org/2000/svg">
    <path d="M24.4667 4.83334L25.4473 5.02946C25.552 4.50603 25.2271 3.99266 24.7092 3.8632L24.4667 4.83334ZM20.9667 22.3333L20.9667 23.3333H21.7865L21.9473 22.5295L20.9667 22.3333ZM16.3 8.34474L15.596 9.05494C15.8015 9.25863 16.0851 9.36334 16.3737 9.34203C16.6622 9.32071 16.9274 9.17547 17.1007 8.94381L16.3 8.34474ZM17.4667 1.33334L18.1738 0.626237C17.8204 0.272805 17.2603 0.234612 16.8621 0.536795L17.4667 1.33334ZM1.13336 4.83334L0.890826 3.8632C0.372971 3.99266 0.0480958 4.50603 0.152781 5.02946L1.13336 4.83334ZM4.63336 22.3333L3.65278 22.5295L3.81356 23.3333H4.63336V22.3333ZM9.30003 8.34474L8.49933 8.94381C8.67265 9.17547 8.93782 9.32071 9.22637 9.34203C9.51491 9.36334 9.79854 9.25863 10.004 9.05494L9.30003 8.34474ZM8.13336 1.33334L8.73794 0.536795C8.3398 0.234612 7.77969 0.272805 7.42625 0.626237L8.13336 1.33334ZM23.4861 4.63723L19.9861 22.1372L21.9473 22.5295L25.4473 5.02946L23.4861 4.63723ZM18.9993 3.06761L15.4993 7.74568L17.1007 8.94381L20.6007 4.26574L18.9993 3.06761ZM17.004 7.63454L13.504 4.16511L12.096 5.58551L15.596 9.05494L17.004 7.63454ZM13.4046 5.67186L18.0713 2.12989L16.8621 0.536795L12.1955 4.07876L13.4046 5.67186ZM16.7596 2.04045L19.0929 4.37378L20.5071 2.95957L18.1738 0.626237L16.7596 2.04045ZM24.7092 3.8632L20.0426 2.69653L19.5575 4.63682L24.2242 5.80349L24.7092 3.8632ZM18.05 23.3333H20.9667L20.9667 21.3333H18.05L18.05 23.3333ZM0.152781 5.02946L3.65278 22.5295L5.61394 22.1372L2.11394 4.63723L0.152781 5.02946ZM4.99933 4.26574L8.49933 8.94381L10.1007 7.74568L6.60073 3.06761L4.99933 4.26574ZM10.004 9.05494L13.504 5.58551L12.096 4.16511L8.59603 7.63454L10.004 9.05494ZM13.4046 4.07876L8.73794 0.536795L7.52879 2.12989L12.1955 5.67186L13.4046 4.07876ZM7.42625 0.626237L5.09292 2.95957L6.50713 4.37378L8.84047 2.04045L7.42625 0.626237ZM1.3759 5.80349L6.04256 4.63682L5.55749 2.69653L0.890826 3.8632L1.3759 5.80349ZM7.55003 21.3333H4.63336V23.3333H7.55003V21.3333Z" fill="#7E1891"/>
    <path d="M10.4675 7.16669L12.3005 10.0834L9.30084 20L12.8 24.6667L16.3 20L13.3002 10.0834L15.1342 7.16669" stroke="#7E1891" stroke-width="2" stroke-linejoin="round"/>
</svg>
