<svg width="20" height="20" viewBox="0 0 20 20" fill="none" xmlns="http://www.w3.org/2000/svg">
    <path d="M17.7167 10.6814H14.5359V9.09105H17.7167V10.6814ZM17.7167 11.5902H14.5359V13.1806H17.7167V11.5902ZM17.7167 4.09277H14.5359V5.68312H17.7167V4.09277ZM17.7167 6.59191H14.5359V8.18226H17.7167V6.59191ZM17.7167 14.0893H14.5359V15.6797H17.7167V14.0893ZM19.9136 17.2246C19.8228 17.6972 19.2548 17.7086 18.8754 17.7245H11.8096V19.7692H10.3987L0 17.9516V2.05031L10.4601 0.230469H11.8096V2.04121H18.6323C19.0162 2.05711 19.4388 2.02984 19.7728 2.2593C20.0068 2.59555 19.9841 3.0227 20 3.40891L19.9909 15.2367C19.9796 15.8978 20.0522 16.5726 19.9136 17.2246ZM8.33121 13.66C7.70418 12.3877 7.06578 11.1245 6.44098 9.85215C7.05894 8.61394 7.66785 7.37121 8.27445 6.12844C7.75871 6.15344 7.24297 6.18523 6.72953 6.2216C6.34555 7.15535 5.89797 8.06414 5.59809 9.02973C5.31863 8.11867 4.94832 7.24168 4.6098 6.35336C4.10996 6.38062 3.61012 6.41016 3.11031 6.43969C3.63738 7.60297 4.19859 8.75023 4.70976 9.92031C4.1077 11.0563 3.54426 12.2082 2.96035 13.351C3.45789 13.3714 3.95547 13.3919 4.45301 13.3987C4.80746 12.4945 5.2482 11.6243 5.55719 10.7019C5.83437 11.6925 6.30465 12.608 6.6909 13.5554C7.23844 13.5941 7.78367 13.6282 8.33121 13.66ZM18.9164 3.12023H11.8096V4.09277H13.6272V5.68312H11.8096V6.59191H13.6272V8.18226H11.8096V9.09105H13.6272V10.6814H11.8096V11.5902H13.6272V13.1806H11.8096V14.0893H13.6272V15.6797H11.8096V16.7304H18.9164V3.12023Z" fill="#1E6D42"/>
</svg>
