<svg xmlns="http://www.w3.org/2000/svg" version="1.1" xmlns:xlink="http://www.w3.org/1999/xlink" width="512" height="512" x="0" y="0" viewBox="0 0 48 48" style="enable-background:new 0 0 512 512" xml:space="preserve" class=""><g><path d="M45.423 23.119C45.032 22.581 35.72 9.944 24 9.944S2.968 22.58 2.578 23.118a1.503 1.503 0 0 0 0 1.763c.39.538 9.702 13.175 21.422 13.175s21.032-12.637 21.423-13.174a1.5 1.5 0 0 0 0-1.763zM24 35.056c-8.53 0-16.038-8.294-18.301-11.056C7.962 21.238 15.47 12.944 24 12.944S40.038 21.238 42.302 24C40.038 26.762 32.53 35.056 24 35.056zm4.221-16.174a1.501 1.501 0 0 0-.413 2.081c.502.751.768 1.629.768 2.538 0 2.522-2.053 4.575-4.575 4.575s-4.575-2.053-4.575-4.575 2.052-4.575 4.575-4.575a1.5 1.5 0 1 0 0-3c-4.177 0-7.575 3.398-7.575 7.575s3.398 7.575 7.575 7.575 7.575-3.398 7.575-7.575c0-1.504-.44-2.958-1.273-4.205a1.5 1.5 0 0 0-2.082-.414z" fill="#000000" opacity="1" data-original="#000000" class=""></path></g></svg>