<svg width="26" height="26" viewBox="0 0 26 26" fill="none" xmlns="http://www.w3.org/2000/svg">
    <path d="M15.4 1.26734C14.624 1.10894 13.824 1.02894 13 1.02734C6.3724 1.02734 1 6.39374 1 13.0141C1 19.6345 6.3724 25.0009 13 25.0009C19.6276 25.0009 25 19.6345 25 13.0141C24.9984 12.1925 24.9184 11.3933 24.76 10.6165" stroke="#6A7E9E" stroke-width="1.3" stroke-linecap="round" stroke-linejoin="round"/>
    <path d="M12.9996 9.4168C11.6736 9.4168 10.5996 10.222 10.5996 11.2156C10.5996 12.208 11.6736 13.0132 12.9996 13.0132C14.3256 13.0132 15.3996 13.8172 15.3996 14.8108C15.3996 15.8044 14.3256 16.6096 12.9996 16.6096M12.9996 9.4168C14.0436 9.4168 14.934 9.9172 15.2628 10.6168M12.9996 9.4168V8.218M12.9996 16.6096C11.9556 16.6096 11.0652 16.1092 10.7364 15.4096M12.9996 16.6096V17.8084M24.9936 1L19.9836 6.0088M18.9948 1.6252L19.1364 5.3308C19.1364 6.2044 19.6584 6.7492 20.61 6.8176L24.3588 6.994" stroke="#6A7E9E" stroke-width="1.3" stroke-linecap="round" stroke-linejoin="round"/>
</svg>
