<svg width="48" height="48" viewBox="0 0 48 48" fill="none" xmlns="http://www.w3.org/2000/svg">
    <path d="M11.8537 41.1936C7.71066 38.3788 5 33.7022 5 28.4088V19.5077C5 17.1394 5.5426 14.8945 6.51332 12.8846M18.7073 43.828C20.51 44.0792 22.29 44.014 23.9904 43.6794M35.4448 12.8318C31.2586 4.24852 19.7916 1.32947 11.8537 6.7227M36.9838 20.6586V22.9908M20.9918 11.9961C25.4078 11.9961 28.9878 15.7551 28.9878 20.392M13.7654 16.7938C13.272 17.8844 12.9959 19.1044 12.9959 20.392V27.5886C12.9959 32.2256 16.5759 35.9846 20.9918 35.9846C21.3304 35.9846 21.664 35.9626 21.9914 35.9196M20.9918 20.9918V26.989" stroke="#1E1E1E" stroke-width="3" stroke-linecap="round" stroke-linejoin="round"/>
    <path d="M32.3404 36.894C32.9412 37.1824 33.6864 37.9278 34.047 38.5286C34.1672 39.37 34.7682 36.1248 37.701 34.2016M43 36C43 40.4182 39.4182 44 35 44C30.5818 44 27 40.4182 27 36C27 31.5818 30.5818 28 35 28C39.4182 28 43 31.5818 43 36Z" stroke="#1E1E1E" stroke-width="3" stroke-linecap="round"/>
</svg>
