<svg width="48" height="48" viewBox="0 0 48 48" fill="none" xmlns="http://www.w3.org/2000/svg">
    <path d="M36.8856 34.1144L34.9999 36M34.9999 36L33.1143 37.8856M34.9999 36L36.8856 37.8856M34.9999 36L33.1143 34.1144M40.6567 41.6568C37.5325 44.781 32.4674 44.781 29.3432 41.6568C26.219 38.5326 26.219 33.4674 29.3432 30.3432C32.4674 27.219 37.5325 27.219 40.6567 30.3432C43.7809 33.4674 43.7809 38.5326 40.6567 41.6568Z" stroke="#1E1E1E" stroke-width="3" stroke-linecap="round"/>
    <path d="M11.8571 41.2116C7.71204 38.3954 5 33.7166 5 28.4206V19.5151C5 17.1457 5.54288 14.8998 6.51408 12.8889M18.7143 43.8472C20.5178 44.0986 22.2988 44.0334 24 43.6986M35.4602 12.8361C31.272 4.24864 19.7991 1.32818 11.8571 6.72402M37 20.6666V23M21 12C25.4182 12 29 15.7608 29 20.4M13.7699 16.8C13.2762 17.8911 13 19.1117 13 20.4V27.6C13 32.2392 16.5817 36 21 36C21.3386 36 21.6724 35.978 22 35.935M21 21V27" stroke="#1E1E1E" stroke-width="3" stroke-linecap="round" stroke-linejoin="round"/>
</svg>
