<svg width="25" height="28" viewBox="0 0 25 28" fill="none" xmlns="http://www.w3.org/2000/svg">
    <path d="M12.5334 3.96979C14.8889 3.96979 17.1112 4.47535 19.2 5.48646C21.2889 6.49757 23.0334 7.95868 24.4334 9.86979C24.5889 10.0698 24.6389 10.2476 24.5834 10.4031C24.5278 10.5587 24.4334 10.692 24.3 10.8031C24.1667 10.9142 24.0112 10.9642 23.8334 10.9531C23.6556 10.942 23.5 10.8476 23.3667 10.6698C22.1445 8.93646 20.5723 7.60868 18.65 6.68646C16.7278 5.76424 14.6889 5.30313 12.5334 5.30313C10.3778 5.30313 8.3556 5.76424 6.46671 6.68646C4.57782 7.60868 3.01115 8.93646 1.76671 10.6698C1.63337 10.8698 1.47782 10.9809 1.30004 11.0031C1.12226 11.0253 0.966706 10.9809 0.833372 10.8698C0.677817 10.7587 0.583372 10.6198 0.550039 10.4531C0.516706 10.2865 0.566706 10.1142 0.700039 9.93646C2.07782 8.04757 3.8056 6.5809 5.88337 5.53646C7.96115 4.49201 10.1778 3.96979 12.5334 3.96979ZM12.5334 7.10313C15.5334 7.10313 18.1112 8.10313 20.2667 10.1031C22.4223 12.1031 23.5 14.5809 23.5 17.5365C23.5 18.6476 23.1056 19.5753 22.3167 20.3198C21.5278 21.0642 20.5667 21.4365 19.4334 21.4365C18.3 21.4365 17.3278 21.0642 16.5167 20.3198C15.7056 19.5753 15.3 18.6476 15.3 17.5365C15.3 16.8031 15.0278 16.1865 14.4834 15.6865C13.9389 15.1865 13.2889 14.9365 12.5334 14.9365C11.7778 14.9365 11.1278 15.1865 10.5834 15.6865C10.0389 16.1865 9.76671 16.8031 9.76671 17.5365C9.76671 19.692 10.4056 21.492 11.6834 22.9365C12.9611 24.3809 14.6111 25.392 16.6334 25.9698C16.8334 26.0365 16.9667 26.1476 17.0334 26.3031C17.1 26.4587 17.1112 26.6253 17.0667 26.8031C17.0223 26.9587 16.9334 27.092 16.8 27.2031C16.6667 27.3142 16.5 27.3476 16.3 27.3031C13.9889 26.7253 12.1 25.5753 10.6334 23.8531C9.16671 22.1309 8.43337 20.0253 8.43337 17.5365C8.43337 16.4253 8.83337 15.492 9.63337 14.7365C10.4334 13.9809 11.4 13.6031 12.5334 13.6031C13.6667 13.6031 14.6334 13.9809 15.4334 14.7365C16.2334 15.492 16.6334 16.4253 16.6334 17.5365C16.6334 18.2698 16.9111 18.8865 17.4667 19.3865C18.0223 19.8865 18.6778 20.1365 19.4334 20.1365C20.1889 20.1365 20.8334 19.8865 21.3667 19.3865C21.9 18.8865 22.1667 18.2698 22.1667 17.5365C22.1667 14.9587 21.2223 12.792 19.3334 11.0365C17.4445 9.2809 15.1889 8.40313 12.5667 8.40313C9.94448 8.40313 7.68893 9.2809 5.80004 11.0365C3.91115 12.792 2.96671 14.9476 2.96671 17.5031C2.96671 18.0365 3.01671 18.7031 3.11671 19.5031C3.21671 20.3031 3.45559 21.2365 3.83337 22.3031C3.90004 22.5031 3.89448 22.6809 3.81671 22.8365C3.73893 22.992 3.61115 23.1031 3.43337 23.1698C3.25559 23.2365 3.08337 23.2309 2.91671 23.1531C2.75004 23.0753 2.63337 22.9476 2.56671 22.7698C2.23337 21.9031 1.99448 21.042 1.85004 20.1865C1.70559 19.3309 1.63337 18.4476 1.63337 17.5365C1.63337 14.5809 2.70559 12.1031 4.85004 10.1031C6.99448 8.10313 9.55559 7.10313 12.5334 7.10313ZM12.5334 0.703125C13.9556 0.703125 15.3445 0.875347 16.7 1.21979C18.0556 1.56424 19.3667 2.05868 20.6334 2.70312C20.8334 2.81424 20.95 2.94757 20.9834 3.10313C21.0167 3.25868 21 3.41424 20.9334 3.56979C20.8667 3.72535 20.7556 3.84757 20.6 3.93646C20.4445 4.02535 20.2556 4.01424 20.0334 3.90313C18.8556 3.30313 17.6389 2.84201 16.3834 2.51979C15.1278 2.19757 13.8445 2.03646 12.5334 2.03646C11.2445 2.03646 9.97782 2.18646 8.73337 2.48646C7.48893 2.78646 6.30004 3.25868 5.16671 3.90313C4.98893 4.01424 4.81115 4.04201 4.63337 3.98646C4.4556 3.9309 4.32226 3.81424 4.23337 3.63646C4.14448 3.45868 4.12226 3.29757 4.16671 3.15313C4.21115 3.00868 4.32226 2.8809 4.50004 2.76979C5.74448 2.10313 7.04448 1.59201 8.40004 1.23646C9.7556 0.880903 11.1334 0.703125 12.5334 0.703125ZM12.5334 10.3365C14.6 10.3365 16.3778 11.0309 17.8667 12.4198C19.3556 13.8087 20.1 15.5142 20.1 17.5365C20.1 17.7365 20.0389 17.8976 19.9167 18.0198C19.7945 18.142 19.6334 18.2031 19.4334 18.2031C19.2556 18.2031 19.1 18.142 18.9667 18.0198C18.8334 17.8976 18.7667 17.7365 18.7667 17.5365C18.7667 15.8698 18.15 14.4753 16.9167 13.3531C15.6834 12.2309 14.2223 11.6698 12.5334 11.6698C10.8445 11.6698 9.39448 12.2309 8.18337 13.3531C6.97226 14.4753 6.36671 15.8698 6.36671 17.5365C6.36671 19.3365 6.67782 20.8642 7.30004 22.1198C7.92226 23.3753 8.83337 24.6365 10.0334 25.9031C10.1667 26.0365 10.2334 26.192 10.2334 26.3698C10.2334 26.5476 10.1667 26.7031 10.0334 26.8365C9.90004 26.9698 9.74448 27.0365 9.56671 27.0365C9.38893 27.0365 9.23337 26.9698 9.10004 26.8365C7.78893 25.4587 6.78337 24.0531 6.08337 22.6198C5.38337 21.1865 5.03337 19.492 5.03337 17.5365C5.03337 15.5142 5.76671 13.8087 7.23337 12.4198C8.70004 11.0309 10.4667 10.3365 12.5334 10.3365ZM12.5 16.8698C12.7 16.8698 12.8611 16.9365 12.9834 17.0698C13.1056 17.2031 13.1667 17.3587 13.1667 17.5365C13.1667 19.2031 13.7667 20.5698 14.9667 21.6365C16.1667 22.7031 17.5667 23.2365 19.1667 23.2365C19.3 23.2365 19.4889 23.2253 19.7334 23.2031C19.9778 23.1809 20.2334 23.1476 20.5 23.1031C20.7 23.0587 20.8723 23.0865 21.0167 23.1865C21.1611 23.2865 21.2556 23.4365 21.3 23.6365C21.3445 23.8142 21.3111 23.9698 21.2 24.1031C21.0889 24.2365 20.9445 24.3253 20.7667 24.3698C20.3667 24.4809 20.0167 24.542 19.7167 24.5531C19.4167 24.5642 19.2334 24.5698 19.1667 24.5698C17.1889 24.5698 15.4723 23.9031 14.0167 22.5698C12.5612 21.2365 11.8334 19.5587 11.8334 17.5365C11.8334 17.3587 11.8945 17.2031 12.0167 17.0698C12.1389 16.9365 12.3 16.8698 12.5 16.8698Z" fill="#46C35F"/>
</svg>
