<svg xmlns="http://www.w3.org/2000/svg" version="1.1" xmlns:xlink="http://www.w3.org/1999/xlink" width="512" height="512" x="0" y="0" viewBox="0 0 512 512" style="enable-background:new 0 0 512 512" xml:space="preserve" class=""><g><path fill="#6aa9ff" d="M330.35 149.999h-91.087l-3.541-9.988C221.421 99.671 183.139 92.567 180 90.736V.001l17.984 3.651C263.027 16.854 313.551 67.24 326.7 132.015z" opacity="1" data-original="#6aa9ff" class=""></path><path fill="#ff641a" d="M90 164.999c0-59.278 59.637-74.005 60-74.263V.001l-17.984 3.651C55.592 19.164 0 86.34 0 164.999c0 45.491 18.505 86.741 48.382 116.618l56.118-13.618 7.492-49.992C98.411 204.427 90 185.677 90 164.999z" opacity="1" data-original="#ff641a"></path><path fill="#ffe470" d="m330.35 179.999-3.65 17.98c-15.35 75.6-82.23 132.02-161.7 132.02-45.49 0-86.74-18.5-116.62-48.38l63.61-63.61c13.58 13.58 32.33 21.99 53.01 21.99 60.69 0 73.05-58.29 74.26-60z" opacity="1" data-original="#ffe470"></path><path fill="#ffb64c" d="m330.35 179.999-3.65 17.98c-15.35 75.6-82.23 132.02-161.7 132.02v-90c60.69 0 73.05-58.29 74.26-60zM391 241.999h90v255h-90z" opacity="1" data-original="#ffb64c"></path><path fill="#6aa9ff" d="M271 391.999h90v105h-90z" opacity="1" data-original="#6aa9ff" class=""></path><path fill="#ffe470" d="M151 361.999h90v135h-90z" opacity="1" data-original="#ffe470"></path><path fill="#ff641a" d="M31 421.999h90v75H31z" opacity="1" data-original="#ff641a"></path><path fill="#61729b" d="M0 481.999h512v30H0z" opacity="1" data-original="#61729b"></path><path fill="#47568c" d="M256 481.999h256v30H256z" opacity="1" data-original="#47568c"></path></g></svg>