<svg width="26" height="23" viewBox="0 0 26 23" fill="none" xmlns="http://www.w3.org/2000/svg">
    <path d="M15.8954 18.9311L14.4797 22.5748C14.425 22.6994 14.3421 22.8011 14.231 22.8798C14.1199 22.9584 13.9909 22.9978 13.844 22.9978C13.6047 22.9978 13.4188 22.8999 13.2864 22.7041C13.1539 22.5083 13.1338 22.2993 13.226 22.0771L18.5234 8.72844C18.5831 8.60377 18.6644 8.50633 18.767 8.4361C18.8697 8.36611 18.9859 8.3311 19.1157 8.3311H19.603C19.7328 8.3311 19.849 8.36611 19.9517 8.4361C20.0541 8.50633 20.1354 8.60377 20.1954 8.72844L25.4927 22.0851C25.5849 22.302 25.5661 22.5083 25.4364 22.7041C25.3064 22.8999 25.1217 22.9978 24.8824 22.9978C24.7304 22.9978 24.6 22.9584 24.4914 22.8798C24.3829 22.8011 24.2987 22.6969 24.2387 22.5671L22.8234 18.9311H15.8954ZM8.88769 12.6054L2.83102 18.6798C2.70635 18.8218 2.55469 18.894 2.37602 18.8964C2.19735 18.8991 2.03458 18.8269 1.88769 18.6798C1.74569 18.538 1.67469 18.3808 1.67469 18.2081C1.67469 18.0354 1.74569 17.8781 1.88769 17.7361L7.94402 11.6541C7.18335 10.8763 6.42647 9.9191 5.67335 8.78244C4.92047 7.64555 4.3628 6.60622 4.00035 5.66444H5.44135C5.76624 6.41155 6.25769 7.26966 6.91569 8.23877C7.57391 9.2081 8.23124 10.032 8.88769 10.7104C10.0484 9.53266 11.0787 8.23999 11.9787 6.83244C12.8787 5.42466 13.4774 4.14644 13.7747 2.99777H0.846354C0.656799 2.99777 0.498354 2.9341 0.371021 2.80677C0.243465 2.67944 0.179688 2.52088 0.179688 2.3311C0.179688 2.14133 0.243465 1.98277 0.371021 1.85544C0.498354 1.7281 0.656799 1.66444 0.846354 1.66444H8.33369V0.690104C8.33369 0.500326 8.39736 0.34177 8.52469 0.214437C8.65202 0.0871035 8.81058 0.0234375 9.00035 0.0234375C9.19013 0.0234375 9.34869 0.0871035 9.47602 0.214437C9.60335 0.34177 9.66702 0.500326 9.66702 0.690104V1.66444H17.1544C17.3439 1.66444 17.5024 1.7281 17.6297 1.85544C17.7572 1.98277 17.821 2.14133 17.821 2.3311C17.821 2.52088 17.7572 2.67944 17.6297 2.80677C17.5024 2.9341 17.3439 2.99777 17.1544 2.99777H15.1594C14.7611 4.39266 14.0825 5.87899 13.1234 7.45677C12.1645 9.03455 11.067 10.4388 9.83102 11.6694L13.2107 15.1414L12.6977 16.5158L8.88769 12.6054ZM16.344 17.7261H22.3747L19.3594 9.9771L16.344 17.7261Z" fill="#6A7E9E"/>
</svg>
