<svg width="16" height="18" viewBox="0 0 24 18" fill="none" xmlns="http://www.w3.org/2000/svg">
    <path d="M7.40039 17.9331C7.1115 17.9331 6.87261 17.8386 6.68372 17.6497C6.49483 17.4608 6.40039 17.222 6.40039 16.9331C6.40039 16.6442 6.49483 16.4053 6.68372 16.2164C6.87261 16.0275 7.1115 15.9331 7.40039 15.9331H22.6004C22.8893 15.9331 23.1282 16.0275 23.3171 16.2164C23.5059 16.4053 23.6004 16.6442 23.6004 16.9331C23.6004 17.222 23.5059 17.4608 23.3171 17.6497C23.1282 17.8386 22.8893 17.9331 22.6004 17.9331H7.40039ZM7.40039 9.99974C7.1115 9.99974 6.87261 9.90529 6.68372 9.71641C6.49483 9.52752 6.40039 9.28863 6.40039 8.99974C6.40039 8.71085 6.49483 8.47196 6.68372 8.28307C6.87261 8.09418 7.1115 7.99974 7.40039 7.99974H22.6004C22.8893 7.99974 23.1282 8.09418 23.3171 8.28307C23.5059 8.47196 23.6004 8.71085 23.6004 8.99974C23.6004 9.28863 23.5059 9.52752 23.3171 9.71641C23.1282 9.90529 22.8893 9.99974 22.6004 9.99974H7.40039ZM7.40039 2.06641C7.1115 2.06641 6.87261 1.97196 6.68372 1.78307C6.49483 1.59418 6.40039 1.3553 6.40039 1.06641C6.40039 0.777517 6.49483 0.538628 6.68372 0.34974C6.87261 0.160851 7.1115 0.0664062 7.40039 0.0664062H22.6004C22.8893 0.0664062 23.1282 0.160851 23.3171 0.34974C23.5059 0.538628 23.6004 0.777517 23.6004 1.06641C23.6004 1.3553 23.5059 1.59418 23.3171 1.78307C23.1282 1.97196 22.8893 2.06641 22.6004 2.06641H7.40039ZM1.40039 2.06641C1.1115 2.06641 0.872613 1.97196 0.683724 1.78307C0.494835 1.59418 0.400391 1.3553 0.400391 1.06641C0.400391 0.777517 0.494835 0.538628 0.683724 0.34974C0.872613 0.160851 1.1115 0.0664062 1.40039 0.0664062C1.68928 0.0664062 1.92817 0.160851 2.11706 0.34974C2.30595 0.538628 2.40039 0.777517 2.40039 1.06641C2.40039 1.3553 2.30595 1.59418 2.11706 1.78307C1.92817 1.97196 1.68928 2.06641 1.40039 2.06641ZM1.40039 9.99974C1.1115 9.99974 0.872613 9.90529 0.683724 9.71641C0.494835 9.52752 0.400391 9.28863 0.400391 8.99974C0.400391 8.71085 0.494835 8.47196 0.683724 8.28307C0.872613 8.09418 1.1115 7.99974 1.40039 7.99974C1.68928 7.99974 1.92817 8.09418 2.11706 8.28307C2.30595 8.47196 2.40039 8.71085 2.40039 8.99974C2.40039 9.28863 2.30595 9.52752 2.11706 9.71641C1.92817 9.90529 1.68928 9.99974 1.40039 9.99974ZM1.40039 17.9331C1.1115 17.9331 0.872613 17.8386 0.683724 17.6497C0.494835 17.4608 0.400391 17.222 0.400391 16.9331C0.400391 16.6442 0.494835 16.4053 0.683724 16.2164C0.872613 16.0275 1.1115 15.9331 1.40039 15.9331C1.68928 15.9331 1.92817 16.0275 2.11706 16.2164C2.30595 16.4053 2.40039 16.6442 2.40039 16.9331C2.40039 17.222 2.30595 17.4608 2.11706 17.6497C1.92817 17.8386 1.68928 17.9331 1.40039 17.9331Z" fill="#6A7E9E"/>
</svg>
