<svg width="38" height="36" viewBox="0 0 38 36" fill="none" xmlns="http://www.w3.org/2000/svg">
    <path d="M37.75 8V9.25C37.75 9.41576 37.6842 9.57473 37.5669 9.69194C37.4497 9.80915 37.2908 9.875 37.125 9.875H35.25V10.8125C35.25 11.3302 34.8302 11.75 34.3125 11.75H3.6875C3.16977 11.75 2.75 11.3302 2.75 10.8125V9.875H0.875C0.70924 9.875 0.550268 9.80915 0.433058 9.69194C0.315848 9.57473 0.25 9.41576 0.25 9.25V8C0.250001 7.87635 0.286678 7.75548 0.355391 7.65268C0.424103 7.54988 0.521764 7.46978 0.636016 7.4225L18.761 0.547495C18.914 0.484168 19.086 0.484168 19.239 0.547495L37.364 7.4225C37.4782 7.46978 37.5759 7.54988 37.6446 7.65268C37.7133 7.75548 37.75 7.87635 37.75 8ZM35.875 31.75H2.125C1.08945 31.75 0.25 32.5894 0.25 33.625V34.875C0.25 35.0408 0.315848 35.1997 0.433058 35.3169C0.550268 35.4341 0.70924 35.5 0.875 35.5H37.125C37.2908 35.5 37.4497 35.4341 37.5669 35.3169C37.6842 35.1997 37.75 35.0408 37.75 34.875V33.625C37.75 32.5894 36.9105 31.75 35.875 31.75ZM6.5 13V28H3.6875C3.16977 28 2.75 28.4198 2.75 28.9375V30.5H35.25V28.9375C35.25 28.4198 34.8302 28 34.3125 28H31.5V13H26.5V28H21.5V13H16.5V28H11.5V13H6.5Z" fill="white"/>
</svg>
