<svg width="20" height="24" viewBox="0 0 20 24" fill="none" xmlns="http://www.w3.org/2000/svg">
    <path d="M10.0003 12.6653C8.87721 12.6653 7.92977 12.2794 7.15799 11.5077C6.38621 10.7359 6.00033 9.78845 6.00033 8.66533C6.00033 7.54222 6.38621 6.59478 7.15799 5.823C7.92977 5.05122 8.87721 4.66533 10.0003 4.66533C11.1234 4.66533 12.0709 5.05122 12.8427 5.823C13.6144 6.59478 14.0003 7.54222 14.0003 8.66533C14.0003 9.78845 13.6144 10.7359 12.8427 11.5077C12.0709 12.2794 11.1234 12.6653 10.0003 12.6653ZM10.0003 11.332C10.749 11.332 11.3807 11.0748 11.8953 10.5603C12.4098 10.0457 12.667 9.414 12.667 8.66533C12.667 7.91667 12.4098 7.285 11.8953 6.77034C11.3807 6.25589 10.749 5.99867 10.0003 5.99867C9.25166 5.99867 8.61999 6.25589 8.10533 6.77034C7.59088 7.285 7.33366 7.91667 7.33366 8.66533C7.33366 9.414 7.59088 10.0457 8.10533 10.5603C8.61999 11.0748 9.25166 11.332 10.0003 11.332ZM10.0003 1.52433L2.00033 4.49867V10.7987C2.00033 12.1353 2.19688 13.4217 2.58999 14.6577C2.9831 15.8934 3.53699 17.037 4.25166 18.0883C5.11655 17.6388 6.02166 17.2892 6.96699 17.0397C7.91232 16.7901 8.92344 16.6653 10.0003 16.6653C11.0772 16.6653 12.0883 16.7901 13.0337 17.0397C13.979 17.2892 14.8841 17.6388 15.749 18.0883C16.4637 17.037 17.0175 15.8934 17.4107 14.6577C17.8038 13.4217 18.0003 12.1353 18.0003 10.7987V4.49867L10.0003 1.52433ZM10.0003 17.9987C9.08077 17.9987 8.20466 18.0961 7.37199 18.291C6.53955 18.4859 5.76177 18.7646 5.03866 19.127C5.71733 19.9303 6.47288 20.6234 7.30533 21.2063C8.13799 21.7892 9.03633 22.2311 10.0003 22.532C10.9643 22.2311 11.8583 21.7892 12.6823 21.2063C13.5063 20.6234 14.2577 19.9303 14.9363 19.127C14.2132 18.7646 13.4397 18.4859 12.6157 18.291C11.7917 18.0961 10.9199 17.9987 10.0003 17.9987ZM10.0003 23.7883C9.87899 23.7883 9.75166 23.7772 9.61833 23.755C9.48499 23.7328 9.36021 23.6994 9.24399 23.655C6.61999 22.655 4.53455 20.9589 2.98766 18.5667C1.44055 16.1742 0.666992 13.5849 0.666992 10.7987V5.08833C0.666992 4.63545 0.798214 4.22522 1.06066 3.85767C1.3231 3.49011 1.65855 3.22345 2.06699 3.05767L9.24633 0.391001C9.50633 0.297001 9.75766 0.25 10.0003 0.25C10.243 0.25 10.4943 0.297001 10.7543 0.391001L17.9337 3.05767C18.3421 3.22345 18.6775 3.49011 18.94 3.85767C19.2024 4.22522 19.3337 4.63545 19.3337 5.08833V10.7987C19.3337 13.5849 18.5601 16.1742 17.013 18.5667C15.4661 20.9589 13.3807 22.655 10.7567 23.655C10.6404 23.6994 10.5157 23.7328 10.3823 23.755C10.249 23.7772 10.1217 23.7883 10.0003 23.7883Z" fill="#6A7E9E"/>
</svg>
