<svg width="30" height="30" viewBox="0 0 30 30" fill="none" xmlns="http://www.w3.org/2000/svg">
    <mask id="mask0_155_2315" style="mask-type:alpha" maskUnits="userSpaceOnUse" x="0" y="6" width="24" height="24">
        <rect y="6" width="24" height="24" fill="#D9D9D9"/>
    </mask>
    <g mask="url(#mask0_155_2315)">
        <path d="M12 17.6924C11.0375 17.6924 10.2136 17.3497 9.52825 16.6644C8.84275 15.9789 8.5 15.1549 8.5 14.1924C8.5 13.2299 8.84275 12.406 9.52825 11.7206C10.2136 11.0351 11.0375 10.6924 12 10.6924C12.9625 10.6924 13.7864 11.0351 14.4718 11.7206C15.1573 12.406 15.5 13.2299 15.5 14.1924C15.5 15.1549 15.1573 15.9789 14.4718 16.6644C13.7864 17.3497 12.9625 17.6924 12 17.6924ZM4.5 23.7886V23.0846C4.5 22.595 4.633 22.1415 4.899 21.7241C5.165 21.3068 5.5205 20.986 5.9655 20.7616C6.95383 20.2771 7.95092 19.9137 8.95675 19.6714C9.96258 19.429 10.977 19.3079 12 19.3079C13.023 19.3079 14.0374 19.429 15.0433 19.6714C16.0491 19.9137 17.0462 20.2771 18.0345 20.7616C18.4795 20.986 18.835 21.3068 19.101 21.7241C19.367 22.1415 19.5 22.595 19.5 23.0846V23.7886C19.5 24.2103 19.3523 24.569 19.0568 24.8646C18.7613 25.1601 18.4026 25.3079 17.9808 25.3079H6.01925C5.59742 25.3079 5.23875 25.1601 4.94325 24.8646C4.64775 24.569 4.5 24.2103 4.5 23.7886ZM6 23.8079H18V23.0846C18 22.8821 17.9413 22.6946 17.824 22.5221C17.7067 22.3498 17.5474 22.2091 17.3462 22.1001C16.4846 21.6758 15.6061 21.3543 14.7107 21.1356C13.8152 20.9171 12.9117 20.8079 12 20.8079C11.0883 20.8079 10.1848 20.9171 9.28925 21.1356C8.39392 21.3543 7.51542 21.6758 6.65375 22.1001C6.45258 22.2091 6.29333 22.3498 6.176 22.5221C6.05867 22.6946 6 22.8821 6 23.0846V23.8079ZM12 16.1924C12.55 16.1924 13.0208 15.9965 13.4125 15.6049C13.8042 15.2132 14 14.7424 14 14.1924C14 13.6424 13.8042 13.1715 13.4125 12.7799C13.0208 12.3882 12.55 12.1924 12 12.1924C11.45 12.1924 10.9792 12.3882 10.5875 12.7799C10.1958 13.1715 10 13.6424 10 14.1924C10 14.7424 10.1958 15.2132 10.5875 15.6049C10.9792 15.9965 11.45 16.1924 12 16.1924Z" fill="#556C91"/>
    </g>
    <g clip-path="url(#clip0_155_2315)">
        <path d="M19.3335 10.0002C22.5835 10.0002 24.0002 8.63283 24.0002 5.3335C24.0002 8.63283 25.4068 10.0002 28.6668 10.0002C25.4068 10.0002 24.0002 11.4068 24.0002 14.6668C24.0002 11.4068 22.5835 10.0002 19.3335 10.0002ZM15.3335 4.3335C17.4228 4.3335 18.3335 3.45483 18.3335 1.3335C18.3335 3.45483 19.2382 4.3335 21.3335 4.3335C19.2382 4.3335 18.3335 5.23816 18.3335 7.3335C18.3335 5.23816 17.4228 4.3335 15.3335 4.3335Z" stroke="#556C91" stroke-linejoin="round"/>
    </g>
    <defs>
        <clipPath id="clip0_155_2315">
            <rect width="16" height="16" fill="white" transform="translate(14)"/>
        </clipPath>
    </defs>
</svg>
