<svg width="22" height="22" viewBox="0 0 22 22" fill="none" xmlns="http://www.w3.org/2000/svg">
    <path d="M2.48701 21.6654C1.87323 21.6654 1.36079 21.4598 0.949674 21.0487C0.538563 20.6376 0.333008 20.1251 0.333008 19.5114V2.48603C0.333008 1.87225 0.538563 1.35981 0.949674 0.948698C1.36079 0.537587 1.87323 0.332031 2.48701 0.332031H19.5123C20.1261 0.332031 20.6386 0.537587 21.0497 0.948698C21.4608 1.35981 21.6663 1.87225 21.6663 2.48603V19.5114C21.6663 20.1251 21.4608 20.6376 21.0497 21.0487C20.6386 21.4598 20.1261 21.6654 19.5123 21.6654H2.48701ZM1.66634 2.48603V19.5114C1.66634 19.7167 1.75179 19.9048 1.92267 20.0757C2.09356 20.2466 2.28167 20.332 2.48701 20.332H19.5123C19.7177 20.332 19.9058 20.2466 20.0767 20.0757C20.2476 19.9048 20.333 19.7167 20.333 19.5114V2.48603C20.333 2.2807 20.2476 2.09259 20.0767 1.9217C19.9058 1.75081 19.7177 1.66536 19.5123 1.66536H16.9997V8.88336C16.9997 9.0987 16.9099 9.25892 16.7303 9.36403C16.551 9.46914 16.3672 9.46359 16.179 9.34737L14.879 8.5527C14.7081 8.43625 14.5261 8.37803 14.333 8.37803C14.1399 8.37803 13.9579 8.43625 13.787 8.5527L12.487 9.34737C12.2988 9.46359 12.115 9.46914 11.9357 9.36403C11.7561 9.25892 11.6663 9.0987 11.6663 8.88336V1.66536H2.48701C2.28167 1.66536 2.09356 1.75081 1.92267 1.9217C1.75179 2.09259 1.66634 2.2807 1.66634 2.48603Z" fill="#6A7E9E"/>
</svg>
