<svg width="24" height="24" viewBox="0 0 24 24" fill="none" xmlns="http://www.w3.org/2000/svg">
    <g clip-path="url(#clip0_2309_3608)">
        <path d="M21.6732 18.5497C21.0303 17.9766 20.4675 17.3196 19.9999 16.5964C19.4888 15.5983 19.1828 14.5079 19.0999 13.3897V10.0964C19.1043 8.3401 18.4672 6.64267 17.3084 5.323C16.1495 4.00333 14.5486 3.15226 12.8065 2.92969V2.06969C12.8065 1.83364 12.7128 1.60727 12.5459 1.44036C12.379 1.27346 12.1526 1.17969 11.9165 1.17969C11.6805 1.17969 11.4541 1.27346 11.2872 1.44036C11.1203 1.60727 11.0265 1.83364 11.0265 2.06969V2.94302C9.30004 3.18164 7.71852 4.03786 6.57489 5.35309C5.43126 6.66833 4.80302 8.35345 4.80654 10.0964V13.3897C4.72357 14.5079 4.41756 15.5983 3.90654 16.5964C3.44712 17.3179 2.89333 17.9748 2.25987 18.5497C2.18876 18.6122 2.13176 18.6891 2.09268 18.7753C2.0536 18.8615 2.03332 18.955 2.0332 19.0497V19.9564C2.0332 20.1332 2.10344 20.3027 2.22847 20.4278C2.35349 20.5528 2.52306 20.623 2.69987 20.623H21.2332C21.41 20.623 21.5796 20.5528 21.7046 20.4278C21.8296 20.3027 21.8999 20.1332 21.8999 19.9564V19.0497C21.8997 18.955 21.8795 18.8615 21.8404 18.7753C21.8013 18.6891 21.7443 18.6122 21.6732 18.5497ZM3.41987 19.2897C4.04 18.6904 4.58611 18.0189 5.04654 17.2897C5.6904 16.0843 6.06566 14.7538 6.14654 13.3897V10.0964C6.1201 9.31505 6.25115 8.5364 6.5319 7.8068C6.81265 7.07719 7.23734 6.41154 7.7807 5.84949C8.32406 5.28743 8.97496 4.84047 9.69466 4.5352C10.4144 4.22994 11.1881 4.07263 11.9699 4.07263C12.7516 4.07263 13.5254 4.22994 14.2451 4.5352C14.9648 4.84047 15.6157 5.28743 16.159 5.84949C16.7024 6.41154 17.1271 7.07719 17.4078 7.8068C17.6886 8.5364 17.8196 9.31505 17.7932 10.0964V13.3897C17.8741 14.7538 18.2493 16.0843 18.8932 17.2897C19.3536 18.0189 19.8997 18.6904 20.5199 19.2897H3.41987Z" fill="#808080"/>
        <path d="M11.9996 22.8559C12.4195 22.8463 12.8225 22.6884 13.1373 22.4102C13.4521 22.132 13.6583 21.7515 13.7196 21.3359H10.2129C10.2759 21.7628 10.4918 22.1523 10.8204 22.4319C11.1491 22.7115 11.5681 22.8622 11.9996 22.8559Z" fill="#808080"/>
    </g>
    <defs>
        <clipPath id="clip0_2309_3608">
            <rect width="24" height="24" fill="white"/>
        </clipPath>
    </defs>
</svg>
