<svg width="26" height="22" viewBox="0 0 26 22" fill="none" xmlns="http://www.w3.org/2000/svg">
    <path d="M18.8334 9.24999C20.4442 9.24999 21.75 7.94415 21.75 6.33332C21.75 4.72249 20.4442 3.41666 18.8334 3.41666M24.6667 18C24.6667 14.7783 22.055 12.1667 18.8334 12.1667" stroke="#16C47F" stroke-width="2"/>
    <path d="M7.16667 9.24999C5.55584 9.24999 4.25001 7.94415 4.25001 6.33332C4.25001 4.72249 5.55584 3.41666 7.16667 3.41666M1.33336 18C1.33336 14.7783 3.94503 12.1667 7.16669 12.1667" stroke="#16C47F" stroke-width="2"/>
    <path d="M17.0834 5.74999C17.0834 8.00515 15.2552 9.83332 13 9.83332C10.7449 9.83332 8.91669 8.00515 8.91669 5.74999C8.91669 3.49483 10.7449 1.66666 13 1.66666C15.2552 1.66666 17.0834 3.49483 17.0834 5.74999Z" stroke="#16C47F" stroke-width="2"/>
    <path d="M4.83336 20.3333H21.1667C21.1667 16.4673 17.5104 13.3333 13 13.3333C8.4897 13.3333 4.83336 16.4673 4.83336 20.3333Z" stroke="#16C47F" stroke-width="2"/>
</svg>
