<svg width="26" height="18" viewBox="0 0 26 18" fill="none" xmlns="http://www.w3.org/2000/svg">
    <path d="M0.461914 15.626C0.461914 15.0071 0.622136 14.475 0.942581 14.0297C1.26303 13.5846 1.69369 13.2288 2.23458 12.9624C3.39125 12.4117 4.53958 11.9727 5.67958 11.6454C6.8198 11.318 8.19169 11.1544 9.79525 11.1544C11.3986 11.1544 12.7704 11.318 13.9106 11.6454C15.0508 11.9727 16.1991 12.4117 17.3556 12.9624C17.8965 13.2288 18.3271 13.5846 18.6476 14.0297C18.9682 14.475 19.1286 15.0071 19.1286 15.626V16.4364C19.1286 16.7764 18.9956 17.0921 18.7296 17.3837C18.4638 17.6752 18.1353 17.821 17.7439 17.821H1.84625C1.45491 17.821 1.12636 17.688 0.860581 17.422C0.594803 17.1562 0.461914 16.8277 0.461914 16.4364V15.626ZM24.1542 17.821H21.4976C21.5882 17.609 21.6605 17.3855 21.7142 17.1504C21.7682 16.9152 21.7952 16.6772 21.7952 16.4364V15.5644C21.7952 14.7917 21.6388 14.0624 21.3259 13.3764C21.0133 12.6904 20.5697 12.1018 19.9952 11.6107C20.6499 11.744 21.2807 11.929 21.8876 12.1657C22.4942 12.4026 23.0942 12.6688 23.6876 12.9644C24.2654 13.255 24.7184 13.6269 25.0466 14.08C25.3746 14.5334 25.5386 15.0281 25.5386 15.5644V16.4364C25.5386 16.8277 25.4057 17.1562 25.1399 17.422C24.8741 17.688 24.5456 17.821 24.1542 17.821ZM9.79525 8.17969C8.69525 8.17969 7.75358 7.78802 6.97025 7.00469C6.18691 6.22135 5.79525 5.27969 5.79525 4.17969C5.79525 3.07969 6.18691 2.13802 6.97025 1.35469C7.75358 0.571354 8.69525 0.179688 9.79525 0.179688C10.8952 0.179688 11.8369 0.571354 12.6202 1.35469C13.4036 2.13802 13.7952 3.07969 13.7952 4.17969C13.7952 5.27969 13.4036 6.22135 12.6202 7.00469C11.8369 7.78802 10.8952 8.17969 9.79525 8.17969ZM19.4876 4.17969C19.4876 5.27969 19.0959 6.22135 18.3126 7.00469C17.5292 7.78802 16.5876 8.17969 15.4876 8.17969C15.4311 8.17969 15.3592 8.17335 15.2719 8.16069C15.1848 8.1478 15.113 8.13369 15.0566 8.11835C15.5084 7.56502 15.8555 6.95124 16.0979 6.27702C16.3406 5.6028 16.4619 4.90269 16.4619 4.17669C16.4619 3.45069 16.3349 2.75691 16.0809 2.09535C15.8271 1.4338 15.4857 0.815798 15.0566 0.241353C15.1284 0.215798 15.2001 0.199131 15.2719 0.191353C15.3437 0.183576 15.4156 0.179688 15.4876 0.179688C16.5876 0.179688 17.5292 0.571354 18.3126 1.35469C19.0959 2.13802 19.4876 3.07969 19.4876 4.17969ZM1.79525 16.4877H17.7952V15.626C17.7952 15.3131 17.717 15.0396 17.5606 14.8054C17.4041 14.5714 17.1234 14.3475 16.7182 14.1337C15.7234 13.6021 14.6746 13.1949 13.5719 12.912C12.4695 12.6291 11.2106 12.4877 9.79525 12.4877C8.37969 12.4877 7.12069 12.6291 6.01825 12.912C4.91558 13.1949 3.8668 13.6021 2.87191 14.1337C2.4668 14.3475 2.18603 14.5714 2.02958 14.8054C1.87336 15.0396 1.79525 15.3131 1.79525 15.626V16.4877ZM9.79525 6.84635C10.5286 6.84635 11.1564 6.58524 11.6786 6.06302C12.2008 5.5408 12.4619 4.91302 12.4619 4.17969C12.4619 3.44635 12.2008 2.81858 11.6786 2.29635C11.1564 1.77413 10.5286 1.51302 9.79525 1.51302C9.06191 1.51302 8.43414 1.77413 7.91191 2.29635C7.38969 2.81858 7.12858 3.44635 7.12858 4.17969C7.12858 4.91302 7.38969 5.5408 7.91191 6.06302C8.43414 6.58524 9.06191 6.84635 9.79525 6.84635Z" fill="#6A7E9E"/>
</svg>
