<svg width="16" height="16" viewBox="0 0 16 16" fill="none" xmlns="http://www.w3.org/2000/svg">
    <path d="M14.8199 15.7943C13.0924 15.7943 11.357 15.3926 9.61347 14.5893C7.87012 13.786 6.26832 12.6529 4.80807 11.1899C3.34797 9.7267 2.21627 8.12483 1.41297 6.38423C0.609661 4.64378 0.208008 2.90983 0.208008 1.18238C0.208008 0.904778 0.299674 0.673472 0.483008 0.488458C0.666341 0.303444 0.895508 0.210938 1.17051 0.210938H4.16022C4.39167 0.210938 4.59586 0.286486 4.77278 0.437584C4.9497 0.588528 5.06222 0.775069 5.11034 0.997208L5.63582 3.69427C5.67218 3.94452 5.66454 4.15956 5.6129 4.33938C5.56111 4.5192 5.46822 4.67021 5.33424 4.79244L3.2172 6.85333C3.55789 7.47728 3.94717 8.06753 4.38503 8.6241C4.82274 9.18052 5.29665 9.71196 5.80678 10.2184C6.30972 10.7215 6.84445 11.1887 7.41094 11.62C7.97745 12.0513 8.58917 12.4526 9.24611 12.824L11.3031 10.7492C11.4466 10.5999 11.6203 10.4952 11.8242 10.4352C12.028 10.3753 12.2399 10.3607 12.4597 10.3912L15.0051 10.9096C15.2365 10.9707 15.4254 11.0888 15.5718 11.2639C15.7182 11.439 15.7913 11.6376 15.7913 11.8597V14.8318C15.7913 15.1068 15.6988 15.3359 15.5138 15.5193C15.3288 15.7026 15.0975 15.7943 14.8199 15.7943ZM2.56659 5.55235L4.20261 3.98692C4.23195 3.96339 4.25104 3.93108 4.2599 3.88998C4.26876 3.84888 4.26731 3.81069 4.25555 3.7754L3.85703 1.72688C3.84526 1.67997 3.82472 1.64476 3.79538 1.62123C3.76605 1.5977 3.72786 1.58594 3.6808 1.58594H1.72051C1.68522 1.58594 1.65581 1.5977 1.63228 1.62123C1.6089 1.64476 1.59722 1.67417 1.59722 1.70946C1.64412 2.33585 1.74663 2.97217 1.90476 3.61842C2.06273 4.26482 2.28334 4.90947 2.56659 5.55235ZM10.5416 13.4744C11.1492 13.7577 11.7829 13.9742 12.4428 14.1241C13.1028 14.2738 13.7194 14.3628 14.2928 14.3911C14.3281 14.3911 14.3575 14.3793 14.3811 14.3558C14.4046 14.3323 14.4163 14.3029 14.4163 14.2676V12.3391C14.4163 12.2921 14.4046 12.2539 14.3811 12.2245C14.3575 12.1952 14.3223 12.1747 14.2754 12.1629L12.3504 11.7715C12.3151 11.7597 12.2843 11.7583 12.2578 11.7671C12.2314 11.776 12.2034 11.7951 12.1739 11.8244L10.5416 13.4744Z" fill="#555555"/>
</svg>
