<svg xmlns="http://www.w3.org/2000/svg" version="1.1" xmlns:xlink="http://www.w3.org/1999/xlink" width="512" height="512" x="0" y="0" viewBox="0 0 48 48" style="enable-background:new 0 0 512 512" xml:space="preserve" fill-rule="evenodd" class=""><g><path d="M35.036 21.895 19.131 37.8a5.004 5.004 0 0 1-7.072-.004l-.002-.002a4.999 4.999 0 0 1-.004-7.069l15.123-15.124a2.444 2.444 0 0 1 3.458.002c.371.371.795.986.795 1.809a2.407 2.407 0 0 1-.714 1.728l-9.6 9.6a1.501 1.501 0 0 0 2.122 2.122l9.6-9.599c1.021-1.02 1.414-2.384 1.593-3.85.158-1.285-.552-2.829-1.676-3.93a5.512 5.512 0 0 0-3.852-1.597 5.44 5.44 0 0 0-3.849 1.592L9.93 28.602c-3.122 3.123-3.12 8.188.006 11.313l.002.002a8.007 8.007 0 0 0 11.316.006l15.905-15.906c1.969-1.968 3.073-4.638 3.071-7.423s-1.108-5.456-3.079-7.427h-.001c-4.104-4.104-10.753-4.107-14.852-.008l-10.39 10.39a1.5 1.5 0 0 0 2.122 2.123l10.39-10.39c2.928-2.928 7.678-2.926 10.61.005v.001a7.51 7.51 0 0 1 2.2 5.304c0 1.99-.788 3.897-2.194 5.303z" fill="#000000" opacity="1" data-original="#000000" class=""></path></g></svg>