<svg width="18" height="20" viewBox="0 0 18 20" fill="none" xmlns="http://www.w3.org/2000/svg">
    <path d="M0.25 18.2307V14.7693C0.25 14.3474 0.39775 13.9887 0.69325 13.6932C0.98875 13.3977 1.34742 13.25 1.76925 13.25H3.25V11.0577C3.25 10.5591 3.42658 10.1331 3.77975 9.77975C4.13308 9.42658 4.55908 9.25 5.05775 9.25H8.25V6.75H6.76925C6.34742 6.75 5.98875 6.60225 5.69325 6.30675C5.39775 6.01125 5.25 5.65258 5.25 5.23075V1.76925C5.25 1.34742 5.39775 0.98875 5.69325 0.69325C5.98875 0.39775 6.34742 0.25 6.76925 0.25H11.2308C11.6526 0.25 12.0113 0.39775 12.3068 0.69325C12.6023 0.98875 12.75 1.34742 12.75 1.76925V5.23075C12.75 5.65258 12.6023 6.01125 12.3068 6.30675C12.0113 6.60225 11.6526 6.75 11.2308 6.75H9.75V9.25H12.9423C13.4409 9.25 13.8669 9.42658 14.2203 9.77975C14.5734 10.1331 14.75 10.5591 14.75 11.0577V13.25H16.2308C16.6526 13.25 17.0113 13.3977 17.3068 13.6932C17.6023 13.9887 17.75 14.3474 17.75 14.7693V18.2307C17.75 18.6526 17.6023 19.0113 17.3068 19.3068C17.0113 19.6023 16.6526 19.75 16.2308 19.75H11.7693C11.3474 19.75 10.9887 19.6023 10.6932 19.3068C10.3977 19.0113 10.25 18.6526 10.25 18.2307V14.7693C10.25 14.3474 10.3977 13.9887 10.6932 13.6932C10.9887 13.3977 11.3474 13.25 11.7693 13.25H13.25V11.0577C13.25 10.9679 13.2212 10.8942 13.1635 10.8365C13.1058 10.7788 13.0321 10.75 12.9423 10.75H5.05775C4.96792 10.75 4.89417 10.7788 4.8365 10.8365C4.77883 10.8942 4.75 10.9679 4.75 11.0577V13.25H6.23075C6.65258 13.25 7.01125 13.3977 7.30675 13.6932C7.60225 13.9887 7.75 14.3474 7.75 14.7693V18.2307C7.75 18.6526 7.60225 19.0113 7.30675 19.3068C7.01125 19.6023 6.65258 19.75 6.23075 19.75H1.76925C1.34742 19.75 0.98875 19.6023 0.69325 19.3068C0.39775 19.0113 0.25 18.6526 0.25 18.2307ZM6.75 5.25H11.25V1.75H6.75V5.25ZM1.75 18.25H6.25V14.75H1.75V18.25ZM11.75 18.25H16.25V14.75H11.75V18.25Z" fill="#556C91"/>
</svg>
