<svg width="24" height="20" viewBox="0 0 24 20" fill="none" xmlns="http://www.w3.org/2000/svg">
    <path d="M7.74885 14.2868L16.3203 5.7154M0.857422 16.8583C0.857421 17.3123 1.03756 17.7478 1.35831 18.0692C1.67906 18.3906 2.11422 18.5716 2.56828 18.5725H21.4323C21.8863 18.5716 22.3215 18.3906 22.6422 18.0692C22.963 17.7478 23.1431 17.3123 23.1431 16.8583V13.3714C22.403 13.1707 21.7494 12.7319 21.2835 12.1228C20.8175 11.5136 20.565 10.768 20.565 10.0011C20.565 9.2342 20.8175 8.48861 21.2835 7.87948C21.7494 7.27035 22.403 6.83154 23.1431 6.63083V3.14397C23.1431 2.68991 22.963 2.25439 22.6422 1.933C22.3215 1.61161 21.8863 1.4306 21.4323 1.42969H2.56828C2.11422 1.4306 1.67906 1.61161 1.35831 1.933C1.03756 2.25439 0.857421 2.68991 0.857422 3.14397V6.62397C1.60351 6.82021 2.26362 7.25798 2.73467 7.86894C3.20571 8.4799 3.46118 9.22965 3.46118 10.0011C3.46118 10.7726 3.20571 11.5223 2.73467 12.1333C2.26362 12.7442 1.60351 13.182 0.857422 13.3783V16.8583Z" stroke="#6A7E9E" stroke-width="1.3" stroke-linecap="round" stroke-linejoin="round"/>
</svg>
