<svg xmlns="http://www.w3.org/2000/svg" version="1.1" xmlns:xlink="http://www.w3.org/1999/xlink" width="512" height="512" x="0" y="0" viewBox="0 0 512 512" style="enable-background:new 0 0 512 512" xml:space="preserve" class=""><g><path d="M117.12 327c24.84.22 45.79 1.08 62.27 2.62a3.2 3.2 0 0 1 2.9 2.9c1.54 16.48 2.4 37.43 2.62 62.27s-.27 45.77-1.49 62.22a3.05 3.05 0 0 1-2.81 2.85c-16.18 1.23-36.77 1.6-61.19 1s-45-2.05-61.31-4.08a3.45 3.45 0 0 1-3-3c-2-16.26-3.45-36.88-4.08-61.31s-.26-45 1-61.19a3.05 3.05 0 0 1 2.85-2.81c16.45-1.22 37.39-1.71 62.22-1.49m-.28-50.62c-29.55-.07-51.14.85-66.87 2.15-26.17 2.2-46.84 22.26-48.72 47.62-1.11 15.32-1.7 36.27-.77 64.96s2.88 49.69 5 65.05c3.52 25.5 24.89 46.87 50.39 50.39 15.36 2.09 36.36 4 65.05 5s49.64.34 64.9-.79c25.37-1.88 45.42-22.55 47.62-48.72 1.31-15.73 2.22-37.32 2.15-66.87S234.42 344 233 328.24a54.36 54.36 0 0 0-49.3-49.3c-15.73-1.41-37.33-2.45-66.87-2.52zM119.42 51.13c24.42-.63 45-.26 61.19 1a3.05 3.05 0 0 1 2.81 2.87c1.22 16.45 1.7 37.39 1.49 62.22s-1.08 45.79-2.62 62.27a3.2 3.2 0 0 1-2.9 2.9c-16.48 1.54-37.43 2.4-62.27 2.62s-45.77-.28-62.22-1.49a3.05 3.05 0 0 1-2.85-2.81c-1.23-16.19-1.6-36.77-1-61.19s2.05-45 4.08-61.31a3.44 3.44 0 0 1 3-2.95c16.26-2 36.88-3.46 61.31-4.08M120.86.51c-28.68.93-49.69 2.87-65 5C30.31 9 8.94 30.36 5.42 55.86c-2.08 15.36-4 36.36-5 65.05s-.34 49.64.79 64.9c1.91 25.36 22.58 45.42 48.79 47.62 15.73 1.3 37.32 2.22 66.87 2.15s51.14-1.11 66.87-2.52a54.35 54.35 0 0 0 49.3-49.3c1.41-15.73 2.45-37.33 2.52-66.87s-.85-51.14-2.15-66.87c-2.2-26.17-22.25-46.84-47.62-48.72C170.5.17 149.55-.42 120.86.51z" fill="#000000" opacity="1" data-original="#000000" class=""></path><path d="M83.61 138.18a15.24 15.24 0 0 0 14.22 14.13c4.62.33 11 .54 19.64.43s15-.48 19.66-.94a16.36 16.36 0 0 0 14.62-14.62c.46-4.63.83-11 .94-19.66s-.1-15-.43-19.64a15.24 15.24 0 0 0-14.13-14.22c-4.58-.32-10.86-.5-19.47-.31s-14.91.63-19.5 1.15a16.84 16.84 0 0 0-14.71 14.71c-.52 4.6-1 10.89-1.15 19.5s-.01 14.89.31 19.47zM84.45 412.79a16.84 16.84 0 0 0 14.71 14.71c4.6.52 10.9 1 19.5 1.15s14.89 0 19.47-.31a15.24 15.24 0 0 0 14.13-14.22c.33-4.62.54-11 .43-19.64s-.48-15-.94-19.66a16.36 16.36 0 0 0-14.62-14.62c-4.63-.46-11-.83-19.66-.94s-15 .09-19.64.43a15.24 15.24 0 0 0-14.22 14.13c-.32 4.58-.5 10.86-.31 19.47s.63 14.9 1.15 19.5zM310.92 510.05c-12.7.17-23.45-9.76-24.52-23-2-24.5-2.91-55-2.78-90.56q0-6.19.08-12A25.67 25.67 0 0 1 309.17 359h.19a25 25 0 0 1 25 25.49c-.06 3.77-.11 7.66-.15 11.65-.33 34 .29 62.9 1.9 85.84 1 14-9.35 26.53-23 28-.72.02-1.46.02-2.19.07zM475.56 432.77h-.22a23.3 23.3 0 0 1-24.2-24.46c0-.64 0-1.29.07-1.93l.18-6.05a26.68 26.68 0 0 1 25.95-25.61h.05c14-.3 25.05 10.54 24.57 24.24q-.12 3.12-.23 6.14l-.09 2.09c-.64 13.64-12.3 25.08-26.08 25.58zM473.93 276.55c-9.5 0-16.43.39-21.49.84a17.49 17.49 0 0 0-15.9 15.66c-.48 5-.85 11.83-.93 21.19s.15 16.2.53 21.18a16.61 16.61 0 0 0 15.54 15.35c5 .36 11.93.55 21.39.38s16.37-.63 21.42-1.17a18.07 18.07 0 0 0 16.07-15.71c.54-4.92 1-11.66 1.11-20.89s-.13-16-.54-20.86a16.92 16.92 0 0 0-15.72-15.3c-5.05-.42-12-.7-21.48-.67z" fill="#000000" opacity="1" data-original="#000000" class=""></path><path d="M466.77 507a386.75 386.75 0 0 1-41.24 0c-32.17-1.94-57-29.82-59.23-65.73-.13-2.24-.26-4.23-.38-6.1-.69-10.27-1.17-17.7-.85-41.13.28-21.28-.16-27.14-.88-36.86-.15-2-.31-4.06-.47-6.41-.78-11.14-7.8-20.15-16.37-21.07-2.39-.13-12.34-.28-19-.38-9.61-.16-15.17-.26-17.72-.41A25.5 25.5 0 0 1 314 278c1.69.1 9.71.26 15.56.37 15.07.29 20.19.41 22.86.67 33.42 3.3 59.68 31.54 62 67.19.15 2.23.29 4.22.43 6.08.72 10.22 1.25 17.6.8 40.87-.43 21.16-.1 27 .48 36.63.12 1.95.24 4 .36 6.36.58 11.12 7.38 20 15.86 20.53a375 375 0 0 0 46.35-.19c13.84-.91 24.88 9.35 24.51 23s-11.86 25.7-25.55 26.8c-3.66.3-7.36.53-10.89.69zM392.58 51.13c24.43.62 45.05 2 61.31 4.08a3.44 3.44 0 0 1 2.95 2.95c2 16.26 3.46 36.88 4.08 61.31s.26 45-1 61.19a3.05 3.05 0 0 1-2.85 2.81c-16.45 1.21-37.39 1.71-62.22 1.49s-45.79-1.08-62.27-2.62a3.2 3.2 0 0 1-2.9-2.9c-1.54-16.48-2.4-37.43-2.62-62.27s.28-45.77 1.49-62.22a3.05 3.05 0 0 1 2.81-2.85c16.19-1.23 36.77-1.6 61.19-1M391.14.51c-28.69-.93-49.64-.34-64.9.79-25.36 1.88-45.42 22.55-47.62 48.7-1.3 15.73-2.22 37.32-2.15 66.87s1.11 51.13 2.53 66.89a54.36 54.36 0 0 0 49.3 49.3c15.73 1.41 37.33 2.45 66.87 2.52s51.14-.85 66.87-2.15c26.17-2.2 46.84-22.26 48.72-47.62 1.13-15.26 1.72-36.21.79-64.9s-2.87-49.69-5-65C503.06 30.36 481.68 9 456.19 5.47c-15.36-2.09-36.37-4-65.05-5z" fill="#000000" opacity="1" data-original="#000000" class=""></path><path d="M360.25 137.18a16.36 16.36 0 0 0 14.62 14.62c4.63.46 11 .83 19.66.94s15-.1 19.64-.43a15.24 15.24 0 0 0 14.22-14.13c.32-4.58.5-10.86.31-19.47s-.63-14.9-1.15-19.5a16.84 16.84 0 0 0-14.71-14.71c-4.6-.52-10.89-1-19.5-1.15s-14.89 0-19.47.31a15.24 15.24 0 0 0-14.13 14.22c-.33 4.62-.54 11-.43 19.64s.48 15.03.94 19.66z" fill="#000000" opacity="1" data-original="#000000" class=""></path></g></svg>