<svg width="20" height="24" viewBox="0 0 20 24" fill="none" xmlns="http://www.w3.org/2000/svg">
    <path d="M6.00033 19.3333H14.0003C14.1901 19.3333 14.3487 19.2697 14.476 19.1423C14.6033 19.015 14.667 18.8564 14.667 18.6667C14.667 18.4769 14.6033 18.3183 14.476 18.191C14.3487 18.0637 14.1901 18 14.0003 18H6.00033C5.81055 18 5.65199 18.0637 5.52466 18.191C5.39733 18.3183 5.33366 18.4769 5.33366 18.6667C5.33366 18.8564 5.39733 19.015 5.52466 19.1423C5.65199 19.2697 5.81055 19.3333 6.00033 19.3333ZM6.00033 14H14.0003C14.1901 14 14.3487 13.9363 14.476 13.809C14.6033 13.6817 14.667 13.5231 14.667 13.3333C14.667 13.1436 14.6033 12.985 14.476 12.8577C14.3487 12.7303 14.1901 12.6667 14.0003 12.6667H6.00033C5.81055 12.6667 5.65199 12.7303 5.52466 12.8577C5.39733 12.985 5.33366 13.1436 5.33366 13.3333C5.33366 13.5231 5.39733 13.6817 5.52466 13.809C5.65199 13.9363 5.81055 14 6.00033 14ZM2.82099 24C2.20721 24 1.69477 23.7944 1.28366 23.3833C0.872548 22.9722 0.666992 22.4598 0.666992 21.846V2.154C0.666992 1.54022 0.872548 1.02778 1.28366 0.616667C1.69477 0.205556 2.20721 0 2.82099 0H12.4387C12.726 0 13.0051 0.0581105 13.276 0.174333C13.5469 0.290555 13.7789 0.445223 13.972 0.638334L18.6953 5.36167C18.8884 5.55478 19.0431 5.78678 19.1593 6.05767C19.2755 6.32856 19.3337 6.60767 19.3337 6.895V21.846C19.3337 22.4598 19.1281 22.9722 18.717 23.3833C18.3059 23.7944 17.7934 24 17.1797 24H2.82099ZM12.667 5.58967V1.33333H2.82099C2.61566 1.33333 2.42755 1.41878 2.25666 1.58967C2.08577 1.76056 2.00033 1.94867 2.00033 2.154V21.846C2.00033 22.0513 2.08577 22.2394 2.25666 22.4103C2.42755 22.5812 2.61566 22.6667 2.82099 22.6667H17.1797C17.385 22.6667 17.5731 22.5812 17.744 22.4103C17.9149 22.2394 18.0003 22.0513 18.0003 21.846V6.66667H13.744C13.4344 6.66667 13.1775 6.56456 12.9733 6.36033C12.7691 6.15611 12.667 5.89922 12.667 5.58967Z" fill="#6A7E9E"/>
</svg>
