<svg width="21" height="24" viewBox="0 0 21 24" fill="none" xmlns="http://www.w3.org/2000/svg">
    <path d="M8.13188 23.9105C5.74913 23.3767 3.79812 22.1671 2.27887 20.2818C0.759625 18.3964 0 16.2013 0 13.6965C0 12.4228 0.23275 11.1989 0.69825 10.0246C1.1635 8.8501 1.80475 7.77253 2.622 6.7919C2.7625 6.62633 2.927 6.54205 3.1155 6.53904C3.304 6.53603 3.48375 6.62032 3.65475 6.7919C3.79525 6.93267 3.86688 7.10225 3.86963 7.30063C3.87263 7.49901 3.80387 7.68687 3.66337 7.86421C2.94812 8.65998 2.40875 9.55983 2.04525 10.5638C1.68175 11.5674 1.5 12.6117 1.5 13.6965C1.5 15.8026 2.1515 17.6701 3.4545 19.2993C4.75725 20.9281 6.4135 21.9825 8.42325 22.4625C8.59425 22.5048 8.73313 22.5963 8.83988 22.7371C8.94663 22.8776 9 23.0337 9 23.2053C9 23.4557 8.91638 23.6527 8.74912 23.7963C8.58187 23.9398 8.37613 23.9779 8.13188 23.9105ZM12.8681 23.968C12.6239 24.0356 12.4181 23.9961 12.2509 23.8496C12.0836 23.7031 12 23.5046 12 23.2541C12 23.0885 12.0534 22.9354 12.1601 22.7946C12.2669 22.6541 12.4058 22.553 12.5768 22.4914C14.5673 21.9095 16.2188 20.8199 17.5312 19.2226C18.8438 17.6253 19.5 15.7833 19.5 13.6965C19.5 11.1917 18.625 9.06263 16.875 7.30927C15.125 5.5559 13 4.67922 10.5 4.67922H9.55087L11.4202 6.55219C11.5798 6.712 11.6595 6.88921 11.6595 7.08383C11.6595 7.27846 11.5798 7.45567 11.4202 7.61548C11.2605 7.77554 11.0835 7.85556 10.8892 7.85556C10.6953 7.85556 10.5184 7.77554 10.3586 7.61548L7.52588 4.77766C7.39512 4.64641 7.30338 4.5124 7.25063 4.37564C7.19763 4.23888 7.17113 4.08959 7.17113 3.92778C7.17113 3.76597 7.19763 3.61669 7.25063 3.47992C7.30338 3.34316 7.39512 3.20915 7.52588 3.0779L10.3586 0.240084C10.5184 0.0800267 10.6953 0 10.8892 0C11.0835 0 11.2605 0.0800267 11.4202 0.240084C11.5798 0.39989 11.6595 0.577106 11.6595 0.771729C11.6595 0.966352 11.5798 1.14357 11.4202 1.30337L9.55087 3.17634H10.5C13.427 3.17634 15.9087 4.19655 17.9452 6.23696C19.9818 8.27737 21 10.7639 21 13.6965C21 16.1763 20.2356 18.3555 18.7069 20.2341C17.1779 22.1127 15.2316 23.3573 12.8681 23.968Z" fill="#6A7E9E"/>
</svg>
