<svg width="22" height="28" viewBox="0 0 22 28" fill="none" xmlns="http://www.w3.org/2000/svg">
    <path d="M10.9997 24.7193C11.2748 24.7193 11.5146 24.6172 11.719 24.413C11.9232 24.2085 12.0253 23.9687 12.0253 23.6936C12.0253 23.4183 11.9232 23.1785 11.719 22.9743C11.5146 22.7701 11.2748 22.668 10.9997 22.668C10.7246 22.668 10.4848 22.7701 10.2803 22.9743C10.0761 23.1785 9.97401 23.4183 9.97401 23.6936C9.97401 23.9687 10.0761 24.2085 10.2803 24.413C10.4848 24.6172 10.7246 24.7193 10.9997 24.7193ZM2.48701 27.3346C1.89034 27.3346 1.38212 27.1249 0.962341 26.7053C0.542786 26.2855 0.333008 25.7773 0.333008 25.1806V2.82197C0.333008 2.2253 0.542786 1.71708 0.962341 1.2973C1.38212 0.877747 1.89034 0.667969 2.48701 0.667969H19.5123C20.109 0.667969 20.6172 0.877747 21.037 1.2973C21.4566 1.71708 21.6663 2.2253 21.6663 2.82197V25.1806C21.6663 25.7773 21.4566 26.2855 21.037 26.7053C20.6172 27.1249 20.109 27.3346 19.5123 27.3346H2.48701ZM1.66634 21.386V25.1806C1.66634 25.42 1.74323 25.6166 1.89701 25.7706C2.05101 25.9244 2.24767 26.0013 2.48701 26.0013H19.5123C19.7517 26.0013 19.9483 25.9244 20.1023 25.7706C20.2561 25.6166 20.333 25.42 20.333 25.1806V21.386H1.66634ZM1.66634 20.0526H20.333V5.33464H1.66634V20.0526ZM1.66634 4.0013H20.333V2.82197C20.333 2.58264 20.2561 2.38597 20.1023 2.23197C19.9483 2.07819 19.7517 2.0013 19.5123 2.0013H2.48701C2.24767 2.0013 2.05101 2.07819 1.89701 2.23197C1.74323 2.38597 1.66634 2.58264 1.66634 2.82197V4.0013Z" fill="#6A7E9E"/>
</svg>
