<svg width="24" height="24" viewBox="0 0 24 24" fill="none" xmlns="http://www.w3.org/2000/svg">
    <mask id="mask0_2309_3968" style="mask-type:alpha" maskUnits="userSpaceOnUse" x="0" y="0" width="24" height="24">
        <rect width="24" height="24" fill="#D9D9D9"/>
    </mask>
    <g mask="url(#mask0_2309_3968)">
        <path d="M12 5.20788C11.7874 5.20788 11.6093 5.13604 11.4658 4.99238C11.3221 4.84854 11.2503 4.67038 11.2503 4.45788V2.26563C11.2503 2.05313 11.3222 1.87504 11.466 1.73138C11.6099 1.58754 11.788 1.51562 12.0005 1.51562C12.2132 1.51562 12.3913 1.58754 12.5348 1.73138C12.6784 1.87504 12.7503 2.05313 12.7503 2.26563V4.45788C12.7503 4.67038 12.6784 4.84854 12.5345 4.99238C12.3907 5.13604 12.2125 5.20788 12 5.20788ZM16.7965 7.20013C16.658 7.06179 16.5904 6.89038 16.5935 6.68588C16.5967 6.48138 16.6675 6.30154 16.806 6.14637L18.331 4.58687C18.4815 4.43171 18.6602 4.35412 18.867 4.35412C19.0739 4.35412 19.2555 4.43237 19.412 4.58888C19.5555 4.73238 19.6273 4.90729 19.6273 5.11362C19.6273 5.32012 19.5548 5.49579 19.4098 5.64063L17.8503 7.20013C17.7055 7.34513 17.5298 7.41762 17.3233 7.41762C17.1169 7.41762 16.9414 7.34513 16.7965 7.20013ZM19.5388 12.7464C19.3263 12.7464 19.1481 12.6745 19.0043 12.5306C18.8606 12.3868 18.7888 12.2086 18.7888 11.9961C18.7888 11.7835 18.8606 11.6054 19.0043 11.4619C19.1481 11.3182 19.3263 11.2464 19.5388 11.2464H21.731C21.9435 11.2464 22.1216 11.3183 22.2653 11.4621C22.4091 11.606 22.481 11.7841 22.481 11.9966C22.481 12.2093 22.4091 12.3874 22.2653 12.5309C22.1216 12.6745 21.9435 12.7464 21.731 12.7464H19.5388ZM12 22.4771C11.7874 22.4771 11.6093 22.4052 11.4658 22.2614C11.3221 22.1177 11.2503 21.9396 11.2503 21.7271V19.5444C11.2503 19.3319 11.3222 19.1538 11.466 19.0101C11.6099 18.8663 11.788 18.7944 12.0005 18.7944C12.2132 18.7944 12.3913 18.8663 12.5348 19.0101C12.6784 19.1538 12.7503 19.3319 12.7503 19.5444V21.7271C12.7503 21.9396 12.6784 22.1177 12.5345 22.2614C12.3907 22.4052 12.2125 22.4771 12 22.4771ZM6.16003 7.20013L4.59078 5.66563C4.43561 5.51579 4.35803 5.33471 4.35803 5.12237C4.35803 4.91021 4.43561 4.73171 4.59078 4.58687C4.73561 4.44837 4.91336 4.37912 5.12403 4.37912C5.3347 4.37912 5.5082 4.44837 5.64453 4.58687L7.21378 6.15613C7.35228 6.29246 7.42153 6.46596 7.42153 6.67663C7.42153 6.88729 7.35295 7.06179 7.21578 7.20013C7.06611 7.33863 6.89153 7.40788 6.69203 7.40788C6.49237 7.40788 6.31503 7.33863 6.16003 7.20013ZM18.3408 19.4059L16.806 17.8464C16.6675 17.6912 16.5967 17.5114 16.5935 17.3069C16.5904 17.1024 16.6574 16.931 16.7945 16.7926C16.9317 16.6541 17.1032 16.5849 17.309 16.5849C17.5147 16.5849 17.6951 16.6573 17.8503 16.8021L19.4098 18.3369C19.5586 18.4752 19.6304 18.6492 19.6253 18.8589C19.6201 19.0685 19.5474 19.2509 19.407 19.4059C19.2539 19.561 19.0719 19.6386 18.8613 19.6386C18.6504 19.6386 18.4769 19.561 18.3408 19.4059ZM2.26953 12.7464C2.05703 12.7464 1.87895 12.6745 1.73528 12.5306C1.59145 12.3868 1.51953 12.2086 1.51953 11.9961C1.51953 11.7835 1.59145 11.6054 1.73528 11.4619C1.87895 11.3182 2.05703 11.2464 2.26953 11.2464H4.46178C4.67428 11.2464 4.85245 11.3183 4.99628 11.4621C5.13995 11.606 5.21178 11.7841 5.21178 11.9966C5.21178 12.2093 5.13995 12.3874 4.99628 12.5309C4.85245 12.6745 4.67428 12.7464 4.46178 12.7464H2.26953ZM4.60028 19.4059C4.46178 19.261 4.39095 19.0838 4.38778 18.8741C4.38461 18.6646 4.45228 18.4906 4.59078 18.3521L6.14078 16.8021C6.28561 16.6573 6.4587 16.5849 6.66003 16.5849C6.8612 16.5849 7.03936 16.6566 7.19453 16.8001C7.3497 16.9566 7.42728 17.1371 7.42728 17.3416C7.42728 17.5461 7.3497 17.7259 7.19453 17.8809L5.66953 19.4059C5.51437 19.561 5.33145 19.6386 5.12078 19.6386C4.91012 19.6386 4.73661 19.561 4.60028 19.4059ZM12.0025 17.4964C10.4754 17.4964 9.17653 16.9619 8.10603 15.8929C7.03553 14.8239 6.50028 13.5258 6.50028 11.9986C6.50028 10.4715 7.03478 9.17262 8.10378 8.10212C9.17278 7.03162 10.4709 6.49638 11.998 6.49638C13.5252 6.49638 14.824 7.03088 15.8945 8.09988C16.965 9.16888 17.5003 10.467 17.5003 11.9941C17.5003 13.5213 16.9658 14.8201 15.8968 15.8906C14.8278 16.9611 13.5297 17.4964 12.0025 17.4964Z" fill="#1D3252"/>
    </g>
</svg>
