<svg width="28" height="28" viewBox="0 0 28 28" fill="none" xmlns="http://www.w3.org/2000/svg">
    <path d="M13.9994 4.94644C13.7158 4.94644 13.4784 4.85066 13.2871 4.65911C13.0955 4.46733 12.9997 4.22977 12.9997 3.94644V1.02344C12.9997 0.740104 13.0956 0.50266 13.2874 0.311104C13.4792 0.119327 13.7167 0.0234375 14.0001 0.0234375C14.2836 0.0234375 14.5211 0.119327 14.7124 0.311104C14.9039 0.50266 14.9997 0.740104 14.9997 1.02344V3.94644C14.9997 4.22977 14.9038 4.46733 14.7121 4.65911C14.5203 4.85066 14.2827 4.94644 13.9994 4.94644ZM20.3947 7.60277C20.2101 7.41833 20.1198 7.18977 20.1241 6.9171C20.1283 6.64444 20.2227 6.40466 20.4074 6.19777L22.4407 4.11844C22.6414 3.91155 22.8796 3.8081 23.1554 3.8081C23.4312 3.8081 23.6734 3.91244 23.8821 4.1211C24.0734 4.31244 24.1691 4.54566 24.1691 4.82077C24.1691 5.0961 24.0724 5.33033 23.8791 5.52344L21.7997 7.60277C21.6066 7.79611 21.3724 7.89277 21.0971 7.89277C20.8219 7.89277 20.5878 7.79611 20.3947 7.60277ZM24.0511 14.9978C23.7677 14.9978 23.5302 14.9019 23.3384 14.7101C23.1468 14.5183 23.0511 14.2808 23.0511 13.9974C23.0511 13.7139 23.1468 13.4764 23.3384 13.2851C23.5302 13.0935 23.7677 12.9978 24.0511 12.9978H26.9741C27.2574 12.9978 27.4948 13.0937 27.6864 13.2854C27.8782 13.4772 27.9741 13.7148 27.9741 13.9981C27.9741 14.2817 27.8782 14.5191 27.6864 14.7104C27.4948 14.902 27.2574 14.9978 26.9741 14.9978H24.0511ZM13.9994 27.9721C13.7158 27.9721 13.4784 27.8762 13.2871 27.6844C13.0955 27.4929 12.9997 27.2554 12.9997 26.9721V24.0618C12.9997 23.7784 13.0956 23.541 13.2874 23.3494C13.4792 23.1577 13.7167 23.0618 14.0001 23.0618C14.2836 23.0618 14.5211 23.1577 14.7124 23.3494C14.9039 23.541 14.9997 23.7784 14.9997 24.0618V26.9721C14.9997 27.2554 14.9038 27.4929 14.7121 27.6844C14.5203 27.8762 14.2827 27.9721 13.9994 27.9721ZM6.21272 7.60277L4.12039 5.55677C3.9135 5.35699 3.81006 5.11555 3.81006 4.83244C3.81006 4.54955 3.9135 4.31155 4.12039 4.11844C4.3135 3.93377 4.5505 3.84144 4.83139 3.84144C5.11228 3.84144 5.34361 3.93377 5.52539 4.11844L7.61772 6.21077C7.80239 6.39255 7.89472 6.62388 7.89472 6.90477C7.89472 7.18566 7.80328 7.41833 7.62039 7.60277C7.42084 7.78744 7.18806 7.87977 6.92206 7.87977C6.65584 7.87977 6.41939 7.78744 6.21272 7.60277ZM22.4537 23.8771L20.4074 21.7978C20.2227 21.5909 20.1283 21.3511 20.1241 21.0784C20.1198 20.8058 20.2092 20.5772 20.3921 20.3928C20.5749 20.2081 20.8036 20.1158 21.0781 20.1158C21.3523 20.1158 21.5928 20.2123 21.7997 20.4054L23.8791 22.4518C24.0775 22.6362 24.1733 22.8682 24.1664 23.1478C24.1595 23.4273 24.0625 23.6704 23.8754 23.8771C23.6712 24.084 23.4286 24.1874 23.1477 24.1874C22.8666 24.1874 22.6353 24.084 22.4537 23.8771ZM1.02539 14.9978C0.742057 14.9978 0.504613 14.9019 0.313057 14.7101C0.12128 14.5183 0.0253906 14.2808 0.0253906 13.9974C0.0253906 13.7139 0.12128 13.4764 0.313057 13.2851C0.504613 13.0935 0.742057 12.9978 1.02539 12.9978H3.94839C4.23172 12.9978 4.46928 13.0937 4.66106 13.2854C4.85261 13.4772 4.94839 13.7148 4.94839 13.9981C4.94839 14.2817 4.85261 14.5191 4.66106 14.7104C4.46928 14.902 4.23172 14.9978 3.94839 14.9978H1.02539ZM4.13306 23.8771C3.94839 23.684 3.85395 23.4477 3.84972 23.1681C3.8455 22.8888 3.93572 22.6568 4.12039 22.4721L6.18706 20.4054C6.38017 20.2123 6.61095 20.1158 6.87939 20.1158C7.14761 20.1158 7.38517 20.2114 7.59206 20.4028C7.79895 20.6114 7.90239 20.8521 7.90239 21.1248C7.90239 21.3974 7.79895 21.6371 7.59206 21.8438L5.55872 23.8771C5.35184 24.084 5.10795 24.1874 4.82706 24.1874C4.54617 24.1874 4.31484 24.084 4.13306 23.8771ZM14.0027 21.3311C11.9665 21.3311 10.2347 20.6184 8.80739 19.1931C7.38006 17.7678 6.66639 16.037 6.66639 14.0008C6.66639 11.9646 7.37906 10.2328 8.80439 8.80544C10.2297 7.3781 11.9605 6.66444 13.9967 6.66444C16.0329 6.66444 17.7647 7.3771 19.1921 8.80244C20.6194 10.2278 21.3331 11.9585 21.3331 13.9948C21.3331 16.031 20.6204 17.7628 19.1951 19.1901C17.7697 20.6174 16.0389 21.3311 14.0027 21.3311ZM13.9997 19.3311C15.4664 19.3311 16.7219 18.8089 17.7664 17.7644C18.8108 16.72 19.3331 15.4644 19.3331 13.9978C19.3331 12.5311 18.8108 11.2755 17.7664 10.2311C16.7219 9.18666 15.4664 8.66444 13.9997 8.66444C12.5331 8.66444 11.2775 9.18666 10.2331 10.2311C9.18861 11.2755 8.66639 12.5311 8.66639 13.9978C8.66639 15.4644 9.18861 16.72 10.2331 17.7644C11.2775 18.8089 12.5331 19.3311 13.9997 19.3311Z" fill="#99D5FF"/>
</svg>
