<svg width="24" height="24" viewBox="0 0 24 24" fill="none" xmlns="http://www.w3.org/2000/svg">
    <mask id="mask0_2383_5295" style="mask-type:alpha" maskUnits="userSpaceOnUse" x="0" y="0" width="24" height="24">
        <rect width="24" height="24" fill="#D9D9D9"/>
    </mask>
    <g mask="url(#mask0_2383_5295)">
        <path d="M11.25 11.6962V7.75C11.25 7.5375 11.3219 7.35933 11.4657 7.2155C11.6096 7.07183 11.7878 7 12.0002 7C12.2129 7 12.391 7.07183 12.5345 7.2155C12.6782 7.35933 12.75 7.5375 12.75 7.75V11.927C12.75 12.0447 12.7282 12.1587 12.6845 12.269C12.641 12.3793 12.5724 12.4813 12.4787 12.575L9.05375 16C8.91542 16.1385 8.74142 16.2093 8.53175 16.2125C8.32208 16.2157 8.14483 16.1448 8 16C7.85517 15.8552 7.78275 15.6795 7.78275 15.473C7.78275 15.2667 7.85517 15.0911 8 14.9462L11.25 11.6962ZM11.9983 21.5C13.3123 21.5 14.5473 21.2507 15.7035 20.752C16.8597 20.2533 17.8653 19.5766 18.7205 18.7218C19.5757 17.8669 20.2528 16.8617 20.7518 15.706C21.2506 14.5503 21.5 13.3156 21.5 12.0017C21.5 10.6877 21.2507 9.45267 20.752 8.2965C20.2533 7.14033 19.5766 6.13467 18.7217 5.2795C17.8669 4.42433 16.8617 3.74725 15.706 3.24825C14.5503 2.74942 13.3156 2.5 12.0017 2.5C10.6877 2.5 9.45267 2.74933 8.2965 3.248C7.14033 3.74667 6.13467 4.42342 5.2795 5.27825C4.42433 6.13308 3.74725 7.13833 3.24825 8.294C2.74942 9.44967 2.5 10.6844 2.5 11.9983C2.5 13.3123 2.74933 14.5473 3.248 15.7035C3.74667 16.8597 4.42342 17.8653 5.27825 18.7205C6.13308 19.5757 7.13833 20.2528 8.294 20.7518C9.44967 21.2506 10.6844 21.5 11.9983 21.5Z" fill="white"/>
    </g>
    <circle cx="18" cy="18" r="6" fill="#46C35F"/>
    <mask id="mask1_2383_5295" style="mask-type:alpha" maskUnits="userSpaceOnUse" x="13" y="13" width="10" height="10">
        <rect x="13" y="13" width="10" height="10" fill="#D9D9D9"/>
    </mask>
    <g mask="url(#mask1_2383_5295)">
        <path d="M17.5003 18.5013V19.668C17.5003 19.8096 17.5482 19.9284 17.6441 20.0242C17.7399 20.1201 17.8587 20.168 18.0003 20.168C18.142 20.168 18.2607 20.1201 18.3566 20.0242C18.4524 19.9284 18.5003 19.8096 18.5003 19.668V18.5013H19.667C19.8087 18.5013 19.9274 18.4534 20.0232 18.3576C20.1191 18.2617 20.167 18.143 20.167 18.0013C20.167 17.8596 20.1191 17.7409 20.0232 17.6451C19.9274 17.5492 19.8087 17.5013 19.667 17.5013H18.5003V16.3346C18.5003 16.193 18.4524 16.0742 18.3566 15.9784C18.2607 15.8826 18.142 15.8346 18.0003 15.8346C17.8587 15.8346 17.7399 15.8826 17.6441 15.9784C17.5482 16.0742 17.5003 16.193 17.5003 16.3346V17.5013H16.3337C16.192 17.5013 16.0732 17.5492 15.9774 17.6451C15.8816 17.7409 15.8337 17.8596 15.8337 18.0013C15.8337 18.143 15.8816 18.2617 15.9774 18.3576C16.0732 18.4534 16.192 18.5013 16.3337 18.5013H17.5003ZM18.0003 22.5221C17.3684 22.5221 16.7781 22.4038 16.2296 22.1671C15.6811 21.9304 15.204 21.6091 14.7982 21.2034C14.3925 20.7976 14.0712 20.3205 13.8345 19.772C13.5978 19.2235 13.4795 18.6332 13.4795 18.0013C13.4795 17.3694 13.5978 16.7791 13.8345 16.2306C14.0712 15.6821 14.3925 15.205 14.7982 14.7992C15.204 14.3935 15.6811 14.0722 16.2296 13.8355C16.7781 13.5988 17.3684 13.4805 18.0003 13.4805C18.6323 13.4805 19.2225 13.5988 19.7711 13.8355C20.3195 14.0722 20.7966 14.3935 21.2024 14.7992C21.6082 15.205 21.9294 15.6821 22.1662 16.2306C22.4028 16.7791 22.5212 17.3694 22.5212 18.0013C22.5212 18.6332 22.4028 19.2235 22.1662 19.772C21.9294 20.3205 21.6082 20.7976 21.2024 21.2034C20.7966 21.6091 20.3195 21.9304 19.7711 22.1671C19.2225 22.4038 18.6323 22.5221 18.0003 22.5221Z" fill="white"/>
    </g>
</svg>
