<svg width="21" height="25" viewBox="0 0 21 25" fill="none" xmlns="http://www.w3.org/2000/svg">
    <path d="M8.09897 2.21094C7.85105 2.21094 7.64329 2.12703 7.47568 1.95923C7.30787 1.79142 7.22397 1.58356 7.22397 1.33565C7.22397 1.08753 7.30787 0.879771 7.47568 0.712354C7.64329 0.544743 7.85105 0.460938 8.09897 0.460938H12.9004C13.1483 0.460938 13.3561 0.54484 13.5237 0.712646C13.6915 0.880452 13.7754 1.08831 13.7754 1.33623C13.7754 1.58434 13.6915 1.7921 13.5237 1.95952C13.3561 2.12713 13.1483 2.21094 12.9004 2.21094H8.09897ZM10.5 15.1116C10.7481 15.1116 10.9558 15.0277 11.1233 14.8599C11.2909 14.6923 11.3747 14.4846 11.3747 14.2366V9.43523C11.3747 9.18731 11.2908 8.97955 11.123 8.81194C10.9552 8.64413 10.7473 8.56023 10.4994 8.56023C10.2513 8.56023 10.0435 8.64413 9.87609 8.81194C9.70848 8.97955 9.62467 9.18731 9.62467 9.43523V14.2366C9.62467 14.4846 9.70858 14.6923 9.87638 14.8599C10.0442 15.0277 10.2521 15.1116 10.5 15.1116ZM10.4997 24.0859C9.13915 24.0859 7.85669 23.8257 6.6523 23.3051C5.44791 22.7846 4.39558 22.0741 3.4953 21.1736C2.59483 20.2734 1.88433 19.221 1.3638 18.0166C0.843272 16.8123 0.583008 15.5298 0.583008 14.1693C0.583008 12.8087 0.843272 11.5263 1.3638 10.3219C1.88433 9.11751 2.59483 8.06517 3.4953 7.1649C4.39558 6.26442 5.44791 5.55392 6.6523 5.0334C7.85669 4.51287 9.13915 4.2526 10.4997 4.2526C11.6679 4.2526 12.793 4.45084 13.8751 4.84731C14.9572 5.24359 15.962 5.81117 16.8895 6.55006L17.7286 5.71094C17.89 5.54935 18.093 5.46671 18.3376 5.46302C18.5822 5.45933 18.789 5.54197 18.958 5.71094C19.127 5.87991 19.2115 6.08485 19.2115 6.32577C19.2115 6.56649 19.127 6.77134 18.958 6.94031L18.1189 7.77944C18.8578 8.70694 19.4254 9.71173 19.8216 10.7938C20.2181 11.8759 20.4163 13.001 20.4163 14.1693C20.4163 15.5298 20.1561 16.8123 19.6355 18.0166C19.115 19.221 18.4045 20.2734 17.5041 21.1736C16.6038 22.0741 15.5514 22.7846 14.347 23.3051C13.1427 23.8257 11.8602 24.0859 10.4997 24.0859ZM10.4997 22.3359C12.7552 22.3359 14.6802 21.5387 16.2747 19.9443C17.8691 18.3498 18.6663 16.4248 18.6663 14.1693C18.6663 11.9137 17.8691 9.98872 16.2747 8.39427C14.6802 6.79983 12.7552 6.0026 10.4997 6.0026C8.24412 6.0026 6.31912 6.79983 4.72467 8.39427C3.13023 9.98872 2.33301 11.9137 2.33301 14.1693C2.33301 16.4248 3.13023 18.3498 4.72467 19.9443C6.31912 21.5387 8.24412 22.3359 10.4997 22.3359Z" fill="#555555"/>
</svg>
