<svg xmlns="http://www.w3.org/2000/svg" version="1.1" xmlns:xlink="http://www.w3.org/1999/xlink" width="512" height="512" x="0" y="0" viewBox="0 0 24 24" style="enable-background:new 0 0 512 512" xml:space="preserve" class=""><g><path fill="#000000" fill-rule="evenodd" d="M6.293 8.293a1 1 0 0 0 1.414 1.414L12 5.414l4.293 4.293a1 1 0 0 0 1.414-1.414l-5-5a1 1 0 0 0-1.414 0zm11.414 7.414a1 1 0 0 0-1.414-1.414L12 18.586l-4.293-4.293a1 1 0 0 0-1.414 1.414l5 5a1 1 0 0 0 1.414 0z" clip-rule="evenodd" opacity="1" data-original="#000000" class=""></path></g></svg>