<svg width="21" height="16" viewBox="0 0 21 16" fill="none" xmlns="http://www.w3.org/2000/svg">
    <path d="M9.75 8.21525L8.41725 9.53275C8.28042 9.67108 8.10933 9.74025 7.904 9.74025C7.69883 9.74025 7.52183 9.66592 7.373 9.51725C7.22817 9.37875 7.15733 9.20317 7.1605 8.9905C7.16383 8.77767 7.23467 8.602 7.373 8.4635L9.86725 5.96925C10.0481 5.78842 10.259 5.698 10.5 5.698C10.741 5.698 10.9519 5.78842 11.1328 5.96925L13.627 8.4635C13.7653 8.602 13.8387 8.77475 13.847 8.98175C13.8553 9.18875 13.782 9.3675 13.627 9.518C13.4885 9.656 13.3154 9.72592 13.1077 9.72775C12.9001 9.72975 12.7218 9.6615 12.573 9.523L11.25 8.21525V13.6923C11.25 13.7692 11.2821 13.8398 11.3462 13.9038C11.4102 13.9679 11.4808 14 11.5577 14H17C17.7 14 18.2917 13.7583 18.775 13.275C19.2583 12.7917 19.5 12.2 19.5 11.5C19.5 10.8 19.2583 10.2083 18.775 9.725C18.2917 9.24167 17.7 9 17 9H15.5V7C15.5 5.61667 15.0125 4.4375 14.0375 3.4625C13.0625 2.4875 11.8833 2 10.5 2C9.11667 2 7.9375 2.4875 6.9625 3.4625C5.9875 4.4375 5.5 5.61667 5.5 7H4.98075C4.03325 7 3.21625 7.34167 2.52975 8.025C1.84325 8.70833 1.5 9.53333 1.5 10.5C1.5 11.4667 1.84167 12.2917 2.525 12.975C3.20833 13.6583 4.03333 14 5 14H6.75C6.9625 14 7.14067 14.0719 7.2845 14.2158C7.42817 14.3596 7.5 14.5378 7.5 14.7503C7.5 14.9629 7.42817 15.141 7.2845 15.2845C7.14067 15.4282 6.9625 15.5 6.75 15.5H5C3.618 15.5 2.43917 15.0206 1.4635 14.0617C0.487833 13.1029 0 11.9311 0 10.5463C0 9.30392 0.399667 8.21125 1.199 7.26825C1.99833 6.32525 2.98967 5.76658 4.173 5.59225C4.4935 4.09742 5.24517 2.875 6.428 1.925C7.61067 0.975 8.968 0.5 10.5 0.5C12.3107 0.5 13.8467 1.13067 15.108 2.392C16.3693 3.65333 17 5.18933 17 7V7.5H17.3078C18.3616 7.582 19.2404 8.00575 19.9443 8.77125C20.6481 9.53658 21 10.4462 21 11.5C21 12.6153 20.6154 13.5608 19.8463 14.3365C19.0769 15.1122 18.1346 15.5 17.0193 15.5H11.5577C11.0526 15.5 10.625 15.325 10.275 14.975C9.925 14.625 9.75 14.1974 9.75 13.6923V8.21525Z" fill="#3FAF55"/>
</svg>
