<svg width="24" height="25" viewBox="0 0 24 25" fill="none" xmlns="http://www.w3.org/2000/svg">
    <path d="M18.2334 17.4872C18.2334 16.2977 19.2781 15.3333 20.5667 15.3333C21.8554 15.3333 22.9001 16.2977 22.9001 17.4872C22.9001 17.916 22.7643 18.3155 22.5304 18.6511C21.833 19.6515 20.5667 20.6053 20.5667 21.7949M20.5554 24.6667V22.9167" stroke="#FF9D23" stroke-width="2" stroke-linejoin="round"/>
    <path d="M15.9001 22.3333H1.90005C1.90005 17.823 6.07873 14.1667 11.2334 14.1667C12.9334 14.1667 14.5272 14.5644 15.9001 15.2592M15.9001 6.00001C15.9001 8.57734 13.8107 10.6667 11.2334 10.6667C8.65606 10.6667 6.56672 8.57734 6.56672 6.00001C6.56672 3.42268 8.65606 1.33334 11.2334 1.33334C13.8107 1.33334 15.9001 3.42268 15.9001 6.00001Z" stroke="#FF9D23" stroke-width="2"/>
</svg>
