<svg width="20" height="20" viewBox="0 0 20 20" fill="none" xmlns="http://www.w3.org/2000/svg">
    <path fill-rule="evenodd" clip-rule="evenodd" d="M4.4443 1.6853C6.08879 0.58649 8.02219 0 10 0C12.6506 0.00508267 15.1912 1.06028 17.0655 2.93455C18.9397 4.80881 19.9949 7.3494 20 10C20 11.9778 19.4135 13.9112 18.3147 15.5557C17.2159 17.2002 15.6541 18.4819 13.8268 19.2388C11.9996 19.9957 9.98891 20.1937 8.0491 19.8078C6.10929 19.422 4.32746 18.4696 2.92894 17.0711C1.53041 15.6725 0.578004 13.8907 0.192152 11.9509C-0.1937 10.0111 0.0043328 8.00042 0.761209 6.17316C1.51809 4.3459 2.79981 2.78412 4.4443 1.6853ZM14.7617 8.24888C15.0691 7.95563 15.0806 7.46872 14.7873 7.16133C14.4941 6.85394 14.0072 6.84248 13.6998 7.13573L8.58699 12.0134L6.30068 9.82849C5.99354 9.53498 5.50662 9.54602 5.2131 9.85316C4.91959 10.1603 4.93064 10.6472 5.23778 10.9407L8.05509 13.633C8.35223 13.917 8.82012 13.9172 9.11751 13.6335L14.7617 8.24888Z" fill="#53B483"/>
</svg>
